<svg width="416" height="60" viewBox="0 0 416 60" fill="none" xmlns="http://www.w3.org/2000/svg">
<g clip-path="url(#clip0)">
<path d="M101.135 0V56.2682L113.075 60V12.8817C113.075 11.5253 113.075 10.8495 113.737 10.17C114.068 9.49316 114.729 9.49328 115.392 9.83171C117.05 10.5086 118.049 11.8656 118.049 14.5784V33.2165C122.028 35.2498 125.339 35.2498 127.993 33.2165C130.647 31.1833 131.975 28.1362 131.975 23.0517C131.978 17.6288 130.98 14.2386 128.66 11.5285C126.671 8.81567 123.026 6.44153 117.718 4.7467C111.087 2.71345 105.447 1.01796 101.135 0ZM97.821 35.2568L82.5664 40.6801L80.2497 41.695C76.6027 43.3898 74.6133 45.0852 74.6133 46.78C74.9444 48.8133 75.6067 51.5286 80.5807 53.2234C85.2235 54.9183 88.871 55.5953 98.157 52.8851V46.78C89.199 49.8286 87.8749 49.4919 86.548 48.8151C85.2211 48.1382 85.219 47.4567 85.55 47.1183C86.5459 46.4414 90.193 45.0833 90.193 45.0833L97.821 42.3716V35.2568ZM131.562 37.8956C130.485 37.8585 129.407 37.8786 128.329 37.9632C124.682 37.9632 121.363 38.642 117.382 39.66V46.78L124.679 44.0631L128.655 42.7099C128.655 42.7099 130.317 42.3717 131.313 42.0333C132.971 41.6949 134.959 42.3716 134.959 42.3716C135.954 42.3716 136.618 42.707 136.618 43.3865C136.949 44.0634 136.286 44.4064 134.628 45.0833L130.982 46.4417L117.718 51.5215V58.6416L123.686 56.6065L140.264 50.5066L142.255 49.4865C146.233 48.1301 147.891 46.4347 147.56 44.4015C147.56 42.3709 145.24 41.0163 141.262 39.66C138.028 38.6427 134.796 38.0067 131.562 37.8956Z" fill="white"/>
<path fill-rule="evenodd" clip-rule="evenodd" d="M313.01 22.1538C313.01 18.9231 310.462 16.3846 307.45 16.3846C304.207 16.3846 301.89 18.9231 301.89 22.1538C301.89 25.3846 304.438 27.9231 307.45 27.9231C310.693 27.9231 313.01 25.3846 313.01 22.1538ZM299.805 22.1538C299.805 18 303.28 14.5385 307.45 14.5385C311.62 14.5385 315.095 18 315.095 22.1538C315.095 26.3077 311.62 29.7692 307.45 29.7692C303.28 29.7692 299.805 26.5385 299.805 22.1538ZM282.662 44.0769C283.357 45.4615 284.516 46.6154 285.906 47.3077C289.149 48.6923 292.855 47.0769 294.245 43.8461C294.94 42.2308 294.94 40.6154 294.245 39C293.55 37.3846 292.392 36.2308 290.771 35.5385C289.149 34.8461 287.527 34.8461 286.137 35.5385L289.844 37.1538C292.16 38.0769 293.319 40.8461 292.392 43.3846C291.466 45.6923 288.686 46.8461 286.137 45.9231L282.662 44.0769ZM297.489 60C283.821 60 272.238 50.7692 268.531 38.0769L280.114 42.9231C280.809 46.8461 284.284 49.8461 288.454 49.8461C293.087 49.8461 297.025 45.9231 297.025 41.3077C297.025 41.0769 297.025 41.0769 297.025 40.8461L307.218 33.4615H307.45C313.705 33.4615 318.801 28.3846 318.801 22.1538C318.801 15.9231 313.705 10.8462 307.45 10.8462C301.195 10.8462 296.099 15.9231 296.099 22.1538C296.099 22.1538 296.099 22.1538 296.099 22.3846L288.917 32.7692C288.686 32.7692 288.686 32.7692 288.454 32.7692C286.601 32.7692 284.979 33.2308 283.589 34.1538L267.605 27.6923C268.763 12.2308 281.736 0 297.489 0C314.168 0 327.605 13.3846 327.605 30C327.605 46.6154 314.168 60 297.489 60Z" fill="white"/>
<path fill-rule="evenodd" clip-rule="evenodd" d="M193.722 4.23993C199.494 3.93752 206.994 8.41121 207.549 8.52118C207.634 8.53368 208.809 8.01383 210.164 7.34902C217.894 3.58762 221.537 4.22744 223.157 4.29991C215.427 -0.453694 204.684 -1.74832 194.859 2.88533C192.029 4.22744 191.957 4.32491 193.722 4.23993ZM237.143 24.1115C235.1 14.4368 228.978 8.35107 228.118 8.35107C227.235 8.35107 225.19 9.13834 223.765 10.0331C220.945 11.7876 218.803 13.8295 215.983 16.4187C221.113 22.8643 228.35 33.2788 230.853 40.8866C231.675 43.3908 232.025 45.8576 231.748 47.2122C231.543 48.2394 231.543 48.2394 231.915 47.7695C232.655 46.8348 234.325 43.9832 234.99 42.5061C235.885 40.5467 236.803 37.645 237.24 35.4057C237.76 32.684 237.713 26.8432 237.143 24.1115ZM199.445 16.4315C195.855 13.1775 192.417 9.91343 188.992 8.76377C187.155 8.14645 187.02 8.18394 185.522 9.74348C181.99 13.4199 179.047 19.3832 178.227 24.5467C177.572 28.6829 177.487 29.8451 177.717 31.8645C178.395 37.9727 179.812 42.1915 182.617 46.4877C183.767 48.2522 184.082 48.5796 183.742 47.6824C183.235 46.3528 183.705 43.1487 184.892 39.9447C186.622 35.226 191.412 26.2886 199.445 16.4315ZM221.38 37.5254C226.74 44.0909 229.205 49.4719 227.96 51.8812C227.005 53.7056 221.1 57.2746 216.757 58.6417C213.177 59.7663 208.482 60.2512 204.61 59.8738C199.99 59.4289 195.31 57.7694 191.29 55.1602C187.917 52.9583 187.155 52.0486 187.155 50.2491C187.155 46.6302 191.135 40.292 197.945 33.0617C201.817 28.9604 207.202 24.1468 207.792 24.2817C208.93 24.5341 217.992 33.3641 221.38 37.5254Z" fill="white"/>
<path fill-rule="evenodd" clip-rule="evenodd" d="M404.759 27.2141C406.653 27.7115 408.194 29.1477 408.835 30.9886C409.239 32.1249 409.225 33.7976 408.82 34.8412C408.074 36.7626 406.629 38.1061 404.759 38.6011C401.732 39.3862 398.507 37.5599 397.632 34.5535C397.371 33.6391 397.383 32.0859 397.685 31.1325C398.585 28.1674 401.732 26.4167 404.759 27.2141ZM391.82 0.819052C391.769 0.858158 391.743 13.9837 391.743 30.0084C391.743 56.4302 391.757 59.1075 391.937 59.1856C392.264 59.3051 401.663 59.2636 402.828 59.132C407.75 58.5735 412.098 55.5817 414.448 51.1415C414.748 50.566 415.152 49.6126 415.362 49.025C416.118 46.7525 416.106 47.3523 416.106 29.945C416.106 16.0489 416.081 13.9715 415.908 13.0961C414.709 6.7881 409.89 2.02119 403.572 0.938597C402.724 0.794738 401.417 0.753302 397.2 0.753302C394.275 0.741044 391.859 0.780048 391.82 0.819052ZM371.168 12.8743C370.41 13.0181 369.249 13.6057 368.623 14.1422C367.355 15.2394 366.717 16.8049 366.822 18.6482C366.873 19.5992 366.926 19.8625 367.316 20.6331C367.889 21.8082 368.74 22.6691 369.915 23.2445C370.724 23.6492 370.931 23.6882 371.991 23.7272C372.942 23.7663 373.283 23.7272 373.922 23.5054C376.547 22.6178 378.139 20.0698 377.683 17.4461C377.174 14.3519 374.21 12.2622 371.168 12.8743ZM381.076 30.0084V54.5478L376.142 54.4845C371.599 54.4332 371.114 54.4064 370.2 54.1845C366.297 53.1775 363.411 50.1759 362.59 46.255C362.329 45.0286 362.329 14.898 362.575 13.6984C363.306 10.2896 365.671 7.4684 368.845 6.20051C370.436 5.56165 371.182 5.48121 376.364 5.46895L381.049 5.4568V30.0084H381.076ZM370.122 0.938597C364.299 1.98219 359.614 6.29067 358.137 11.9598C357.603 14.0105 357.564 15.2126 357.63 31.0935C357.654 45.6699 357.669 46.0087 357.915 47.1426C359.26 53.2189 363.57 57.5397 369.705 58.9637C370.5 59.1465 371.519 59.1856 378.075 59.2124C384.849 59.2636 385.554 59.2514 385.737 59.0685C385.919 58.8857 385.932 56.5473 385.932 30.0499C385.932 10.3944 385.895 1.14821 385.817 0.977601C385.7 0.753201 385.49 0.741044 378.387 0.753201C372.615 0.767891 370.88 0.806895 370.122 0.938597Z" fill="white"/>
<path d="M13.5771 29.4226C13.6913 27.696 14.3151 26.0421 15.3695 24.67C16.424 23.298 17.8616 22.2695 19.5006 21.7147C21.1396 21.1599 22.9064 21.1037 24.5773 21.5532C26.2483 22.0027 27.7484 22.9376 28.8879 24.2399C30.0275 25.5421 30.7551 27.153 30.979 28.8689C31.2028 30.5847 30.9127 32.3284 30.1453 33.8794C29.378 35.4303 28.1679 36.7188 26.6681 37.5819C25.1684 38.445 23.4463 38.8439 21.7198 38.7281C19.4063 38.5732 17.249 37.5061 15.7221 35.7611C14.1951 34.0162 13.4236 31.7363 13.5771 29.4226ZM20.8293 52.288C22.1521 52.3759 23.4801 52.3457 24.7975 52.1978C24.8419 52.1946 24.8864 52.2009 24.9281 52.2163C24.9698 52.2317 25.0077 52.2558 25.0393 52.287C25.0709 52.3183 25.0955 52.3559 25.1113 52.3974C25.1272 52.4389 25.134 52.4834 25.1314 52.5277C24.781 54.8658 23.8759 57.0861 22.4918 59.0029C22.4117 59.1037 22.3637 59.2263 22.3539 59.3547C22.3476 59.5172 22.4052 59.6756 22.5143 59.7961C22.6235 59.9166 22.7755 59.9895 22.9378 59.9991C23.0652 60.0057 23.1917 59.9743 23.3012 59.9089C31.3811 55.4003 37.9275 48.5777 42.0987 40.3185C43.9647 36.7282 44.8202 32.6984 44.574 28.6597C44.3277 24.6209 42.9888 20.725 40.7004 17.3881C38.412 14.0511 35.26 11.3986 31.5812 9.71389C27.9024 8.02918 23.8351 7.37557 19.8137 7.82291C19.7691 7.82674 19.7243 7.82088 19.6823 7.80573C19.6402 7.79058 19.602 7.76649 19.5701 7.73514C19.5383 7.70378 19.5136 7.66589 19.4978 7.62409C19.482 7.58228 19.4754 7.53755 19.4786 7.49296C19.8278 5.15358 20.7315 2.93165 22.1142 1.01266C22.1857 0.92512 22.2319 0.819751 22.2479 0.707895C22.2639 0.596039 22.2491 0.481933 22.2051 0.377861C22.1611 0.273789 22.0895 0.183693 21.9981 0.117273C21.9067 0.0508529 21.7989 0.0106238 21.6863 0.000916824C21.5585 -0.00590904 21.4315 0.0254993 21.3216 0.0911358C13.2371 4.59745 6.6863 11.4204 2.5125 19.6816C0.803702 22.9723 -0.0586977 26.6367 0.00310228 30.3442C0.0650023 34.0516 1.0491 37.6853 2.8668 40.9172C4.6845 44.1491 7.2784 46.8774 10.4144 48.8558C13.5504 50.8342 17.1297 52.0005 20.8293 52.2493V52.288Z" fill="white"/>
</g>
<defs>
<clipPath id="clip0">
<rect width="416" height="60" fill="white"/>
</clipPath>
</defs>
</svg>
