<svg xmlns="http://www.w3.org/2000/svg" viewBox="0 0 54.33 36.28" width="54.33px" height="36.28px"><defs><style>.cls-1{fill:#fff;}</style></defs><title>apex-legends-nav-logo</title><g id="Layer_2" data-name="Layer 2"><g id="Layer_1-2" data-name="Layer 1"><path class="cls-1" d="M22,0H15.21l-.82,3.83h.82V26.38h4V18.72H22a3.29,3.29,0,0,0,3.3-3.29V3.29A3.29,3.29,0,0,0,22,0Zm-.72,14.89h-2V3.83h2Z"/><polygon class="cls-1" points="28.83 3.83 29.66 3.83 29.66 26.39 38.77 26.39 38.77 22.55 33.67 22.55 33.67 15.11 37.26 15.11 37.26 11.28 33.67 11.28 33.67 3.83 38.77 3.83 38.77 0 29.66 0 28.83 3.83"/><polygon class="cls-1" points="51.35 12.27 54.33 0 50.09 0 48.24 8.31 46.23 0 43.09 0 42.26 3.83 43.09 3.83 43.09 3.83 45.14 12.27 45.14 14.11 42.16 26.39 46.39 26.39 48.24 18.08 50.25 26.39 54.33 26.39 51.35 14.11 51.35 12.27"/><path class="cls-1" d="M8.71,0H3.18l-2,18.72H.81v.09L0,22.55H.81l-.4,3.83H4l.34-3.83H7.56l.34,3.83h3.58ZM4.66,18.72,5.94,3.83,7.23,18.72Z"/><polygon class="cls-1" points="9.77 32.63 9.77 33.48 0.59 33.48 0.41 32.63 9.77 32.63"/><polygon class="cls-1" points="44.97 32.63 44.97 33.48 54.15 33.48 54.33 32.63 44.97 32.63"/><polygon class="cls-1" points="17.19 36.28 19.38 36.28 19.38 35.43 18.04 35.43 18.04 33.48 19.04 33.48 19.04 32.63 18.04 32.63 18.04 30.53 19.38 30.53 19.38 29.68 17.19 29.68 17.19 36.28"/><polygon class="cls-1" points="14.09 30.53 14.09 29.68 13.24 29.68 13.24 36.28 15.43 36.28 15.43 35.43 14.09 35.43 14.09 30.53"/><path class="cls-1" d="M23.23,29.68H21.94a.58.58,0,0,0-.56.57v5.47a.57.57,0,0,0,.56.56h1.29a.57.57,0,0,0,.56-.56V32.63H22.68l-.18.85h.44v2h-.71v-4.9h.71v.85l.85-.19v-.94A.57.57,0,0,0,23.23,29.68Z"/><polygon class="cls-1" points="25.79 36.28 27.98 36.28 27.98 35.43 26.64 35.43 26.64 33.48 27.63 33.48 27.63 32.63 26.64 32.63 26.64 30.53 27.98 30.53 27.98 29.68 25.79 29.68 25.79 36.28"/><polygon class="cls-1" points="31.82 33.48 30.74 29.68 29.98 29.68 29.98 36.28 30.82 36.28 30.82 32.63 31.95 36.28 32.67 36.28 32.67 29.68 31.82 29.68 31.82 33.48"/><path class="cls-1" d="M36.52,29.68H34.67v6.6h1.85a.57.57,0,0,0,.56-.56V30.25A.57.57,0,0,0,36.52,29.68Zm-.28,5.75h-.72v-4.9h.72Z"/><path class="cls-1" d="M40.93,32.63h-1v-2.1h.72v.85l.85-.19h0v-1a.56.56,0,0,0-.57-.56H39.65a.55.55,0,0,0-.57.57v2.67a.57.57,0,0,0,.57.56h1v2h-.72v-.89l-.85.18v1a.58.58,0,0,0,.57.56h1.28a.57.57,0,0,0,.57-.56V33.2A.58.58,0,0,0,40.93,32.63Z"/><path class="cls-1" d="M42.69,29.79h-.2v-.11H43v.11h-.2v.74h-.11Z"/><path class="cls-1" d="M43.51,30.53v-.46l-.09.28h-.09l-.08-.28v.46h-.12v-.85h.11l.13.43.14-.43h.11v.85Z"/></g></g></svg>