<svg width="467" height="200" viewBox="0 0 467 200" fill="none" xmlns="http://www.w3.org/2000/svg">
<path fill-rule="evenodd" clip-rule="evenodd" d="M47.9122 88.0739L45.0949 80.5091H44.7269L41.9096 88.0739H47.9122ZM40.1665 92.9986L38.5822 97.2176C38.5082 97.4873 38.3426 97.7226 38.1137 97.8834C37.8849 98.0443 37.6072 98.1204 37.3282 98.0989H32.9517C32.4208 98.0989 32.2117 97.7439 32.4208 97.2176L41.0443 74.3521C41.1586 74.0776 41.3557 73.8454 41.6082 73.6883C41.8607 73.5309 42.1561 73.4564 42.453 73.4749H47.5568C47.8355 73.4514 48.1137 73.5263 48.3429 73.6866C48.5719 73.8469 48.7376 74.0823 48.8109 74.3521L57.4387 97.2176C57.6477 97.7439 57.4387 98.0989 56.9078 98.0989H52.4851C52.2103 98.1153 51.9379 98.0366 51.7143 97.8761C51.4904 97.7156 51.3287 97.4831 51.2563 97.2176L49.672 92.9986H40.1665Z" fill="white"/>
<path fill-rule="evenodd" clip-rule="evenodd" d="M76.8761 78.4003V85.9608H85.1485C86.4024 85.9608 87.0881 85.2591 87.0881 84.0268V80.3343C87.0881 79.102 86.3816 78.4003 85.1485 78.4003H76.8761ZM76.8761 90.8856V97.2181C76.8826 97.3353 76.8645 97.4525 76.8228 97.5621C76.7811 97.6718 76.7167 97.7715 76.634 97.8546C76.5511 97.9376 76.4517 98.0025 76.3422 98.0446C76.2327 98.087 76.1154 98.1056 75.9982 98.0995H72.1232C72.006 98.1056 71.8889 98.087 71.7793 98.0446C71.6697 98.0025 71.5703 97.9376 71.4876 97.8546C71.4047 97.7715 71.3405 97.6718 71.2986 97.5621C71.2569 97.4525 71.2389 97.3353 71.2454 97.2181V74.3526C71.2389 74.2356 71.2569 74.1183 71.2986 74.0086C71.3405 73.8991 71.4047 73.7995 71.4876 73.7163C71.5703 73.6331 71.6697 73.5683 71.7793 73.5261C71.8889 73.484 72.006 73.4653 72.1232 73.4713H86.5572C90.6076 73.4713 92.7186 75.585 92.7186 79.6283V84.7286C92.7186 88.7763 90.6076 90.8856 86.5572 90.8856H76.8761Z" fill="white"/>
<path fill-rule="evenodd" clip-rule="evenodd" d="M113.835 93.1746H127.738C127.855 93.1681 127.972 93.1861 128.082 93.2278C128.192 93.2696 128.292 93.3338 128.375 93.4166C128.458 93.4993 128.523 93.5986 128.565 93.7081C128.607 93.8176 128.626 93.9346 128.62 94.0518V97.2181C128.627 97.3356 128.608 97.4531 128.566 97.5631C128.524 97.6731 128.46 97.773 128.376 97.8561C128.293 97.9393 128.193 98.004 128.083 98.046C127.973 98.088 127.856 98.1061 127.738 98.0995H109.099C108.982 98.1055 108.864 98.0868 108.755 98.0446C108.645 98.0025 108.546 97.9376 108.463 97.8545C108.38 97.7713 108.316 97.6716 108.274 97.5621C108.233 97.4525 108.215 97.3353 108.221 97.2181V74.3526C108.215 74.2358 108.234 74.1191 108.276 74.01C108.318 73.9008 108.382 73.8016 108.465 73.719C108.548 73.6363 108.647 73.572 108.756 73.53C108.865 73.488 108.982 73.4695 109.099 73.4755H127.404C127.521 73.4688 127.638 73.487 127.748 73.5286C127.858 73.5703 127.957 73.6346 128.04 73.7173C128.124 73.8001 128.188 73.8995 128.231 74.009C128.273 74.1183 128.292 74.2355 128.286 74.3526V77.5188C128.292 77.6363 128.274 77.754 128.232 77.8638C128.19 77.9738 128.125 78.0736 128.042 78.1568C127.959 78.2401 127.859 78.3048 127.749 78.3466C127.639 78.3886 127.521 78.407 127.404 78.4003H113.835V83.1455H124.218C124.336 83.1388 124.454 83.157 124.564 83.199C124.674 83.2408 124.774 83.3056 124.857 83.3888C124.94 83.472 125.005 83.5718 125.047 83.6818C125.089 83.7918 125.107 83.9093 125.1 84.0268V87.193C125.106 87.3101 125.088 87.4273 125.045 87.5368C125.003 87.6461 124.938 87.7455 124.855 87.8283C124.772 87.911 124.672 87.9753 124.563 88.017C124.453 88.0586 124.336 88.0768 124.218 88.0703H113.835V93.1746Z" fill="white"/>
<path fill-rule="evenodd" clip-rule="evenodd" d="M152.383 80.861L156.604 74.353C156.96 73.8267 157.311 73.4717 158.013 73.4717H162.607C163.134 73.4717 163.489 73.8267 163.134 74.353L155.743 85.084L164.016 97.2185C164.367 97.7448 164.016 98.1 163.489 98.1H158.895C158.189 98.1 157.838 97.7448 157.486 97.2185L152.383 89.4783H152.027L146.923 97.2185C146.572 97.7448 146.221 98.1 145.515 98.1H140.942C140.411 98.1 140.06 97.7448 140.411 97.2185L148.683 85.084L141.289 74.353C140.937 73.8267 141.289 73.4717 141.815 73.4717H146.413C147.12 73.4717 147.471 73.8267 147.822 74.353L152.044 80.861H152.383Z" fill="white"/>
<path fill-rule="evenodd" clip-rule="evenodd" d="M201.13 93.1746H214.329C214.448 93.1681 214.565 93.1861 214.675 93.2278C214.785 93.2696 214.883 93.3338 214.967 93.4166C215.05 93.4993 215.115 93.5986 215.157 93.7081C215.2 93.8176 215.218 93.9346 215.212 94.0518V97.2181C215.218 97.3356 215.2 97.4531 215.158 97.5631C215.117 97.6731 215.052 97.773 214.968 97.8561C214.885 97.9393 214.785 98.004 214.675 98.046C214.565 98.088 214.448 98.1061 214.329 98.0995H196.377C196.26 98.1055 196.142 98.0868 196.033 98.0446C195.923 98.0025 195.823 97.9376 195.741 97.8545C195.658 97.7713 195.594 97.6716 195.553 97.5621C195.511 97.4525 195.493 97.3353 195.499 97.2181V74.3526C195.493 74.2358 195.511 74.1191 195.553 74.01C195.596 73.9008 195.659 73.8016 195.743 73.719C195.825 73.6363 195.925 73.572 196.033 73.53C196.143 73.488 196.26 73.4695 196.377 73.4755H200.248C200.365 73.4688 200.481 73.487 200.591 73.5286C200.701 73.5703 200.801 73.6346 200.885 73.7173C200.967 73.8001 201.032 73.8995 201.075 74.009C201.117 74.1183 201.135 74.2355 201.13 74.3526V93.1746Z" fill="white"/>
<path fill-rule="evenodd" clip-rule="evenodd" d="M234.564 93.1746H248.472C248.589 93.1686 248.706 93.1873 248.814 93.2291C248.924 93.2711 249.023 93.3356 249.106 93.4183C249.189 93.501 249.253 93.6001 249.295 93.7091C249.338 93.8183 249.356 93.9351 249.35 94.0518V97.2181C249.356 97.3353 249.338 97.4525 249.296 97.5621C249.254 97.6716 249.191 97.7713 249.108 97.8545C249.024 97.9376 248.926 98.0025 248.816 98.0446C248.706 98.0868 248.589 98.1055 248.472 98.0995H229.816C229.699 98.1061 229.58 98.088 229.47 98.046C229.36 98.004 229.26 97.9393 229.179 97.8561C229.095 97.773 229.03 97.6731 228.988 97.5631C228.945 97.4531 228.928 97.3356 228.935 97.2181V74.3526C228.928 74.2355 228.947 74.1183 228.988 74.009C229.032 73.8995 229.097 73.8001 229.18 73.7173C229.262 73.6346 229.362 73.5703 229.472 73.5286C229.582 73.487 229.699 73.4688 229.816 73.4755H248.12C248.237 73.4695 248.354 73.488 248.464 73.53C248.572 73.572 248.672 73.6363 248.754 73.719C248.838 73.8016 248.903 73.9008 248.944 74.01C248.986 74.1191 249.004 74.2358 248.999 74.3526V77.5188C249.006 77.636 248.988 77.7531 248.946 77.8628C248.904 77.9725 248.839 78.0721 248.756 78.1553C248.674 78.2385 248.574 78.3031 248.466 78.3455C248.356 78.3876 248.239 78.4063 248.12 78.4003H234.564V83.1455H244.953C245.07 83.1393 245.187 83.1581 245.297 83.2003C245.405 83.2425 245.505 83.3073 245.589 83.3905C245.67 83.4736 245.735 83.5731 245.777 83.6828C245.819 83.7925 245.837 83.9096 245.83 84.0268V87.193C245.835 87.3098 245.817 87.4266 245.775 87.5356C245.734 87.6448 245.669 87.744 245.587 87.8266C245.503 87.9093 245.405 87.9738 245.295 88.0156C245.187 88.0576 245.07 88.0763 244.953 88.0703H234.564V93.1746Z" fill="white"/>
<path fill-rule="evenodd" clip-rule="evenodd" d="M285.959 92.314C285.959 96.3573 283.844 98.4709 279.798 98.4709H269.59C265.539 98.4709 263.428 96.3573 263.428 92.314V79.2771C263.428 75.2336 265.518 73.1201 269.59 73.1201H279.798C283.844 73.1201 285.959 75.2336 285.959 79.2771V81.0356C285.965 81.1531 285.947 81.2708 285.905 81.3808C285.864 81.4906 285.799 81.5904 285.715 81.6738C285.632 81.7569 285.532 81.8216 285.422 81.8636C285.312 81.9054 285.195 81.9238 285.077 81.9171H281.205C281.089 81.9238 280.97 81.9054 280.86 81.8636C280.752 81.8216 280.652 81.7569 280.568 81.6738C280.485 81.5904 280.42 81.4906 280.378 81.3808C280.336 81.2708 280.318 81.1531 280.325 81.0356V79.9831C280.325 78.7508 279.623 78.0449 278.388 78.0449H270.995C269.766 78.0449 269.058 78.7508 269.058 79.9831V91.5913C269.058 92.8193 269.766 93.5253 270.995 93.5253H278.393C279.648 93.5253 280.328 92.8193 280.328 91.5913V89.3021H275.73C275.613 89.3081 275.496 89.2896 275.388 89.2476C275.278 89.2056 275.179 89.1413 275.096 89.0586C275.014 88.9759 274.949 88.8768 274.908 88.7676C274.866 88.6585 274.846 88.5418 274.853 88.4249V85.2588C274.846 85.1416 274.864 85.0244 274.906 84.9148C274.948 84.8051 275.011 84.7054 275.094 84.6223C275.178 84.5393 275.276 84.4745 275.386 84.4323C275.496 84.39 275.613 84.3713 275.73 84.3774H285.082C285.198 84.3708 285.317 84.3889 285.427 84.4309C285.537 84.4728 285.637 84.5374 285.72 84.6208C285.804 84.7039 285.867 84.8038 285.909 84.9138C285.952 85.0236 285.97 85.1413 285.964 85.2588L285.959 92.314Z" fill="white"/>
<path fill-rule="evenodd" clip-rule="evenodd" d="M307.429 93.175H321.331C321.449 93.1683 321.566 93.1865 321.676 93.2282C321.786 93.2698 321.884 93.3342 321.968 93.4168C322.051 93.4997 322.116 93.599 322.158 93.7085C322.201 93.8178 322.22 93.935 322.213 94.0522V97.2183C322.22 97.3358 322.201 97.4535 322.16 97.5633C322.118 97.6733 322.053 97.7732 321.969 97.8563C321.886 97.9397 321.786 98.0043 321.676 98.0462C321.566 98.0882 321.449 98.1065 321.331 98.0998H302.676C302.557 98.1065 302.44 98.0882 302.33 98.0462C302.22 98.0043 302.12 97.9397 302.037 97.8563C301.953 97.7732 301.888 97.6733 301.847 97.5633C301.805 97.4535 301.787 97.3358 301.793 97.2183V74.3528C301.787 74.2357 301.807 74.1187 301.848 74.0092C301.89 73.8997 301.955 73.8003 302.038 73.7177C302.122 73.6348 302.222 73.5707 302.332 73.5288C302.44 73.4872 302.559 73.4692 302.676 73.4757H320.98C321.097 73.4685 321.216 73.4862 321.326 73.5275C321.436 73.569 321.536 73.6332 321.619 73.716C321.704 73.7988 321.769 73.8983 321.811 74.0082C321.854 74.1178 321.873 74.2353 321.866 74.3528V77.5192C321.873 77.6367 321.854 77.7542 321.813 77.8642C321.771 77.9742 321.706 78.074 321.622 78.1572C321.539 78.2403 321.439 78.305 321.329 78.347C321.219 78.389 321.102 78.4072 320.984 78.4005H307.429V83.1457H317.811C317.93 83.139 318.047 83.1573 318.157 83.1992C318.267 83.2412 318.367 83.3058 318.45 83.389C318.534 83.4723 318.599 83.5722 318.64 83.682C318.682 83.792 318.7 83.9097 318.694 84.027V87.1933C318.7 87.3105 318.68 87.4275 318.639 87.537C318.597 87.6465 318.532 87.7458 318.449 87.8285C318.365 87.9113 318.265 87.9757 318.155 88.0173C318.047 88.059 317.928 88.0772 317.811 88.0705H307.429V93.175Z" fill="white"/>
<path fill-rule="evenodd" clip-rule="evenodd" d="M353.54 89.4777V74.3526C353.534 74.2357 353.552 74.1189 353.595 74.0099C353.637 73.9007 353.7 73.8016 353.784 73.7189C353.867 73.6362 353.966 73.5717 354.076 73.5299C354.184 73.4879 354.301 73.4692 354.418 73.4752H358.294C358.41 73.4692 358.527 73.4879 358.636 73.5299C358.746 73.5717 358.844 73.6362 358.927 73.7189C359.009 73.8016 359.074 73.9007 359.116 74.0099C359.158 74.1189 359.176 74.2357 359.171 74.3526V97.2181C359.178 97.3351 359.159 97.4522 359.118 97.5619C359.076 97.6716 359.011 97.7712 358.929 97.8544C358.846 97.9376 358.746 98.0022 358.637 98.0446C358.527 98.0867 358.41 98.1054 358.294 98.0994H353.54C352.838 98.0994 352.483 97.7484 352.131 97.2181L342.626 82.0927H342.276V97.2181C342.282 97.3351 342.264 97.4522 342.222 97.5619C342.181 97.6716 342.115 97.7712 342.032 97.8544C341.95 97.9376 341.85 98.0022 341.74 98.0446C341.632 98.0867 341.515 98.1054 341.397 98.0994H337.522C337.405 98.1054 337.287 98.0867 337.179 98.0446C337.069 98.0022 336.968 97.9376 336.887 97.8544C336.803 97.7712 336.74 97.6716 336.698 97.5619C336.657 97.4522 336.638 97.3351 336.645 97.2181V74.3526C336.638 74.2357 336.657 74.1189 336.698 74.0099C336.742 73.9007 336.805 73.8016 336.888 73.7189C336.97 73.6362 337.07 73.5717 337.179 73.5299C337.289 73.4879 337.405 73.4692 337.522 73.4752H342.276C342.981 73.4752 343.333 73.8262 343.683 74.3526L353.188 89.4777H353.54Z" fill="white"/>
<path fill-rule="evenodd" clip-rule="evenodd" d="M380.994 93.1746H390.319C391.573 93.1746 392.259 92.4688 392.259 91.2365V80.3343C392.259 79.102 391.553 78.4003 390.319 78.4003H380.994V93.1746ZM391.733 73.4755C395.779 73.4755 397.889 75.564 397.889 79.6283V91.9425C397.889 95.9858 395.799 98.0995 391.733 98.0995H376.24C376.124 98.1061 376.005 98.088 375.895 98.046C375.785 98.004 375.685 97.9393 375.603 97.8561C375.52 97.773 375.455 97.6731 375.413 97.5631C375.37 97.4531 375.353 97.3356 375.36 97.2181V74.3526C375.353 74.2355 375.372 74.1183 375.413 74.009C375.457 73.8995 375.522 73.8001 375.605 73.7173C375.687 73.6346 375.787 73.5703 375.897 73.5286C376.007 73.487 376.124 73.4688 376.24 73.4755H391.733Z" fill="white"/>
<path fill-rule="evenodd" clip-rule="evenodd" d="M428.689 90.8853C428.689 90.0081 428.159 89.4443 427.105 89.1268L417.425 86.1359C414.606 85.2588 413.198 83.8511 413.198 80.8603V79.2771C413.198 75.2336 415.288 73.1201 419.359 73.1201H427.807C431.858 73.1201 433.968 75.2336 433.968 79.2771V81.0356C433.975 81.1531 433.957 81.2708 433.915 81.3808C433.873 81.4906 433.808 81.5904 433.725 81.6738C433.641 81.7569 433.541 81.8216 433.433 81.8636C433.323 81.9054 433.204 81.9238 433.086 81.9171H429.216C429.098 81.9238 428.981 81.9054 428.871 81.8636C428.761 81.8216 428.661 81.7569 428.578 81.6738C428.494 81.5904 428.429 81.4906 428.388 81.3808C428.346 81.2708 428.327 81.1531 428.334 81.0356V79.9831C428.334 78.7508 427.632 78.0449 426.398 78.0449H420.769C419.515 78.0449 418.832 78.7508 418.832 79.9831V80.334C418.832 81.2111 419.359 81.7751 420.412 82.0925L430.099 85.0833C432.911 85.9604 434.32 87.3681 434.32 90.3589V92.314C434.32 96.3573 432.23 98.4709 428.159 98.4709H418.846C414.795 98.4709 412.683 96.3573 412.683 92.314V90.5553C412.676 90.4381 412.695 90.3209 412.736 90.2113C412.778 90.1018 412.843 90.0021 412.926 89.9189C413.008 89.8358 413.108 89.7709 413.218 89.7288C413.327 89.6866 413.444 89.668 413.562 89.674H417.436C417.553 89.668 417.672 89.6866 417.78 89.7288C417.89 89.7709 417.99 89.8358 418.072 89.9189C418.155 90.0021 418.219 90.1018 418.26 90.2113C418.302 90.3209 418.32 90.4381 418.314 90.5553V91.6121C418.314 92.8403 419.021 93.5461 420.25 93.5461H426.766C427.996 93.5461 428.701 92.8403 428.701 91.6121L428.689 90.8853Z" fill="white"/>
<path fill-rule="evenodd" clip-rule="evenodd" d="M47.9122 88.0739L45.0949 80.5091H44.7269L41.9096 88.0739H47.9122ZM40.1665 92.9986L38.5822 97.2176C38.5082 97.4873 38.3426 97.7226 38.1137 97.8834C37.8849 98.0443 37.6072 98.1204 37.3282 98.0989H32.9517C32.4208 98.0989 32.2117 97.7439 32.4208 97.2176L41.0443 74.3521C41.1586 74.0776 41.3557 73.8454 41.6082 73.6883C41.8607 73.5309 42.1561 73.4564 42.453 73.4749H47.5568C47.8355 73.4514 48.1137 73.5263 48.3429 73.6866C48.5719 73.8469 48.7376 74.0823 48.8109 74.3521L57.4387 97.2176C57.6477 97.7439 57.4387 98.0989 56.9078 98.0989H52.4851C52.2103 98.1153 51.9379 98.0366 51.7143 97.8761C51.4904 97.7156 51.3287 97.4831 51.2563 97.2176L49.672 92.9986H40.1665Z" fill="white"/>
<path fill-rule="evenodd" clip-rule="evenodd" d="M76.8761 78.4003V85.9608H85.1485C86.4024 85.9608 87.0881 85.2591 87.0881 84.0268V80.3343C87.0881 79.102 86.3816 78.4003 85.1485 78.4003H76.8761ZM76.8761 90.8856V97.2181C76.8826 97.3353 76.8645 97.4525 76.8228 97.5621C76.7811 97.6718 76.7167 97.7715 76.634 97.8546C76.5511 97.9376 76.4517 98.0025 76.3422 98.0446C76.2327 98.087 76.1154 98.1056 75.9982 98.0995H72.1232C72.006 98.1056 71.8889 98.087 71.7793 98.0446C71.6697 98.0025 71.5703 97.9376 71.4876 97.8546C71.4047 97.7715 71.3405 97.6718 71.2986 97.5621C71.2569 97.4525 71.2389 97.3353 71.2454 97.2181V74.3526C71.2389 74.2356 71.2569 74.1183 71.2986 74.0086C71.3405 73.8991 71.4047 73.7995 71.4876 73.7163C71.5703 73.6331 71.6697 73.5683 71.7793 73.5261C71.8889 73.484 72.006 73.4653 72.1232 73.4713H86.5572C90.6076 73.4713 92.7186 75.585 92.7186 79.6283V84.7286C92.7186 88.7763 90.6076 90.8856 86.5572 90.8856H76.8761Z" fill="white"/>
<path fill-rule="evenodd" clip-rule="evenodd" d="M113.835 93.1746H127.738C127.855 93.1681 127.972 93.1861 128.082 93.2278C128.192 93.2696 128.292 93.3338 128.375 93.4166C128.458 93.4993 128.523 93.5986 128.565 93.7081C128.607 93.8176 128.626 93.9346 128.62 94.0518V97.2181C128.627 97.3356 128.608 97.4531 128.566 97.5631C128.524 97.6731 128.46 97.773 128.376 97.8561C128.293 97.9393 128.193 98.004 128.083 98.046C127.973 98.088 127.856 98.1061 127.738 98.0995H109.099C108.982 98.1055 108.864 98.0868 108.755 98.0446C108.645 98.0025 108.546 97.9376 108.463 97.8545C108.38 97.7713 108.316 97.6716 108.274 97.5621C108.233 97.4525 108.215 97.3353 108.221 97.2181V74.3526C108.215 74.2358 108.234 74.1191 108.276 74.01C108.318 73.9008 108.382 73.8016 108.465 73.719C108.548 73.6363 108.647 73.572 108.756 73.53C108.865 73.488 108.982 73.4695 109.099 73.4755H127.404C127.521 73.4688 127.638 73.487 127.748 73.5286C127.858 73.5703 127.957 73.6346 128.04 73.7173C128.124 73.8001 128.188 73.8995 128.231 74.009C128.273 74.1183 128.292 74.2355 128.286 74.3526V77.5188C128.292 77.6363 128.274 77.754 128.232 77.8638C128.19 77.9738 128.125 78.0736 128.042 78.1568C127.959 78.2401 127.859 78.3048 127.749 78.3466C127.639 78.3886 127.521 78.407 127.404 78.4003H113.835V83.1455H124.218C124.336 83.1388 124.454 83.157 124.564 83.199C124.674 83.2408 124.774 83.3056 124.857 83.3888C124.94 83.472 125.005 83.5718 125.047 83.6818C125.089 83.7918 125.107 83.9093 125.1 84.0268V87.193C125.106 87.3101 125.088 87.4273 125.045 87.5368C125.003 87.6461 124.938 87.7455 124.855 87.8283C124.772 87.911 124.672 87.9753 124.563 88.017C124.453 88.0586 124.336 88.0768 124.218 88.0703H113.835V93.1746Z" fill="white"/>
<path fill-rule="evenodd" clip-rule="evenodd" d="M152.383 80.861L156.604 74.353C156.96 73.8267 157.311 73.4717 158.013 73.4717H162.607C163.134 73.4717 163.489 73.8267 163.134 74.353L155.743 85.084L164.016 97.2185C164.367 97.7448 164.016 98.1 163.489 98.1H158.895C158.189 98.1 157.838 97.7448 157.486 97.2185L152.383 89.4783H152.027L146.923 97.2185C146.572 97.7448 146.221 98.1 145.515 98.1H140.942C140.411 98.1 140.06 97.7448 140.411 97.2185L148.683 85.084L141.289 74.353C140.937 73.8267 141.289 73.4717 141.815 73.4717H146.413C147.12 73.4717 147.471 73.8267 147.822 74.353L152.044 80.861H152.383Z" fill="white"/>
<path fill-rule="evenodd" clip-rule="evenodd" d="M201.13 93.1746H214.329C214.448 93.1681 214.565 93.1861 214.675 93.2278C214.785 93.2696 214.883 93.3338 214.967 93.4166C215.05 93.4993 215.115 93.5986 215.157 93.7081C215.2 93.8176 215.218 93.9346 215.212 94.0518V97.2181C215.218 97.3356 215.2 97.4531 215.158 97.5631C215.117 97.6731 215.052 97.773 214.968 97.8561C214.885 97.9393 214.785 98.004 214.675 98.046C214.565 98.088 214.448 98.1061 214.329 98.0995H196.377C196.26 98.1055 196.142 98.0868 196.033 98.0446C195.923 98.0025 195.823 97.9376 195.741 97.8545C195.658 97.7713 195.594 97.6716 195.553 97.5621C195.511 97.4525 195.493 97.3353 195.499 97.2181V74.3526C195.493 74.2358 195.511 74.1191 195.553 74.01C195.596 73.9008 195.659 73.8016 195.743 73.719C195.825 73.6363 195.925 73.572 196.033 73.53C196.143 73.488 196.26 73.4695 196.377 73.4755H200.248C200.365 73.4688 200.481 73.487 200.591 73.5286C200.701 73.5703 200.801 73.6346 200.885 73.7173C200.967 73.8001 201.032 73.8995 201.075 74.009C201.117 74.1183 201.135 74.2355 201.13 74.3526V93.1746Z" fill="white"/>
<path fill-rule="evenodd" clip-rule="evenodd" d="M234.564 93.1746H248.472C248.589 93.1686 248.706 93.1873 248.814 93.2291C248.924 93.2711 249.023 93.3356 249.106 93.4183C249.189 93.501 249.253 93.6001 249.295 93.7091C249.338 93.8183 249.356 93.9351 249.35 94.0518V97.2181C249.356 97.3353 249.338 97.4525 249.296 97.5621C249.254 97.6716 249.191 97.7713 249.108 97.8545C249.024 97.9376 248.926 98.0025 248.816 98.0446C248.706 98.0868 248.589 98.1055 248.472 98.0995H229.816C229.699 98.1061 229.58 98.088 229.47 98.046C229.36 98.004 229.26 97.9393 229.179 97.8561C229.095 97.773 229.03 97.6731 228.988 97.5631C228.945 97.4531 228.928 97.3356 228.935 97.2181V74.3526C228.928 74.2355 228.947 74.1183 228.988 74.009C229.032 73.8995 229.097 73.8001 229.18 73.7173C229.262 73.6346 229.362 73.5703 229.472 73.5286C229.582 73.487 229.699 73.4688 229.816 73.4755H248.12C248.237 73.4695 248.354 73.488 248.464 73.53C248.572 73.572 248.672 73.6363 248.754 73.719C248.838 73.8016 248.903 73.9008 248.944 74.01C248.986 74.1191 249.004 74.2358 248.999 74.3526V77.5188C249.006 77.636 248.988 77.7531 248.946 77.8628C248.904 77.9725 248.839 78.0721 248.756 78.1553C248.674 78.2385 248.574 78.3031 248.466 78.3455C248.356 78.3876 248.239 78.4063 248.12 78.4003H234.564V83.1455H244.953C245.07 83.1393 245.187 83.1581 245.297 83.2003C245.405 83.2425 245.505 83.3073 245.589 83.3905C245.67 83.4736 245.735 83.5731 245.777 83.6828C245.819 83.7925 245.837 83.9096 245.83 84.0268V87.193C245.835 87.3098 245.817 87.4266 245.775 87.5356C245.734 87.6448 245.669 87.744 245.587 87.8266C245.503 87.9093 245.405 87.9738 245.295 88.0156C245.187 88.0576 245.07 88.0763 244.953 88.0703H234.564V93.1746Z" fill="white"/>
<path fill-rule="evenodd" clip-rule="evenodd" d="M285.959 92.314C285.959 96.3573 283.844 98.4709 279.798 98.4709H269.59C265.539 98.4709 263.428 96.3573 263.428 92.314V79.2771C263.428 75.2336 265.518 73.1201 269.59 73.1201H279.798C283.844 73.1201 285.959 75.2336 285.959 79.2771V81.0356C285.965 81.1531 285.947 81.2708 285.905 81.3808C285.864 81.4906 285.799 81.5904 285.715 81.6738C285.632 81.7569 285.532 81.8216 285.422 81.8636C285.312 81.9054 285.195 81.9238 285.077 81.9171H281.205C281.089 81.9238 280.97 81.9054 280.86 81.8636C280.752 81.8216 280.652 81.7569 280.568 81.6738C280.485 81.5904 280.42 81.4906 280.378 81.3808C280.336 81.2708 280.318 81.1531 280.325 81.0356V79.9831C280.325 78.7508 279.623 78.0449 278.388 78.0449H270.995C269.766 78.0449 269.058 78.7508 269.058 79.9831V91.5913C269.058 92.8193 269.766 93.5253 270.995 93.5253H278.393C279.648 93.5253 280.328 92.8193 280.328 91.5913V89.3021H275.73C275.613 89.3081 275.496 89.2896 275.388 89.2476C275.278 89.2056 275.179 89.1413 275.096 89.0586C275.014 88.9759 274.949 88.8768 274.908 88.7676C274.866 88.6585 274.846 88.5418 274.853 88.4249V85.2588C274.846 85.1416 274.864 85.0244 274.906 84.9148C274.948 84.8051 275.011 84.7054 275.094 84.6223C275.178 84.5393 275.276 84.4745 275.386 84.4323C275.496 84.39 275.613 84.3713 275.73 84.3774H285.082C285.198 84.3708 285.317 84.3889 285.427 84.4309C285.537 84.4728 285.637 84.5374 285.72 84.6208C285.804 84.7039 285.867 84.8038 285.909 84.9138C285.952 85.0236 285.97 85.1413 285.964 85.2588L285.959 92.314Z" fill="white"/>
<path fill-rule="evenodd" clip-rule="evenodd" d="M307.429 93.175H321.331C321.449 93.1683 321.566 93.1865 321.676 93.2282C321.786 93.2698 321.884 93.3342 321.968 93.4168C322.051 93.4997 322.116 93.599 322.158 93.7085C322.201 93.8178 322.22 93.935 322.213 94.0522V97.2183C322.22 97.3358 322.201 97.4535 322.16 97.5633C322.118 97.6733 322.053 97.7732 321.969 97.8563C321.886 97.9397 321.786 98.0043 321.676 98.0462C321.566 98.0882 321.449 98.1065 321.331 98.0998H302.676C302.557 98.1065 302.44 98.0882 302.33 98.0462C302.22 98.0043 302.12 97.9397 302.037 97.8563C301.953 97.7732 301.888 97.6733 301.847 97.5633C301.805 97.4535 301.787 97.3358 301.793 97.2183V74.3528C301.787 74.2357 301.807 74.1187 301.848 74.0092C301.89 73.8997 301.955 73.8003 302.038 73.7177C302.122 73.6348 302.222 73.5707 302.332 73.5288C302.44 73.4872 302.559 73.4692 302.676 73.4757H320.98C321.097 73.4685 321.216 73.4862 321.326 73.5275C321.436 73.569 321.536 73.6332 321.619 73.716C321.704 73.7988 321.769 73.8983 321.811 74.0082C321.854 74.1178 321.873 74.2353 321.866 74.3528V77.5192C321.873 77.6367 321.854 77.7542 321.813 77.8642C321.771 77.9742 321.706 78.074 321.622 78.1572C321.539 78.2403 321.439 78.305 321.329 78.347C321.219 78.389 321.102 78.4072 320.984 78.4005H307.429V83.1457H317.811C317.93 83.139 318.047 83.1573 318.157 83.1992C318.267 83.2412 318.367 83.3058 318.45 83.389C318.534 83.4723 318.599 83.5722 318.64 83.682C318.682 83.792 318.7 83.9097 318.694 84.027V87.1933C318.7 87.3105 318.68 87.4275 318.639 87.537C318.597 87.6465 318.532 87.7458 318.449 87.8285C318.365 87.9113 318.265 87.9757 318.155 88.0173C318.047 88.059 317.928 88.0772 317.811 88.0705H307.429V93.175Z" fill="white"/>
<path fill-rule="evenodd" clip-rule="evenodd" d="M353.54 89.4777V74.3526C353.534 74.2357 353.552 74.1189 353.595 74.0099C353.637 73.9007 353.7 73.8016 353.784 73.7189C353.867 73.6362 353.966 73.5717 354.076 73.5299C354.184 73.4879 354.301 73.4692 354.418 73.4752H358.294C358.41 73.4692 358.527 73.4879 358.636 73.5299C358.746 73.5717 358.844 73.6362 358.927 73.7189C359.009 73.8016 359.074 73.9007 359.116 74.0099C359.158 74.1189 359.176 74.2357 359.171 74.3526V97.2181C359.178 97.3351 359.159 97.4522 359.118 97.5619C359.076 97.6716 359.011 97.7712 358.929 97.8544C358.846 97.9376 358.746 98.0022 358.637 98.0446C358.527 98.0867 358.41 98.1054 358.294 98.0994H353.54C352.838 98.0994 352.483 97.7484 352.131 97.2181L342.626 82.0927H342.276V97.2181C342.282 97.3351 342.264 97.4522 342.222 97.5619C342.181 97.6716 342.115 97.7712 342.032 97.8544C341.95 97.9376 341.85 98.0022 341.74 98.0446C341.632 98.0867 341.515 98.1054 341.397 98.0994H337.522C337.405 98.1054 337.287 98.0867 337.179 98.0446C337.069 98.0022 336.968 97.9376 336.887 97.8544C336.803 97.7712 336.74 97.6716 336.698 97.5619C336.657 97.4522 336.638 97.3351 336.645 97.2181V74.3526C336.638 74.2357 336.657 74.1189 336.698 74.0099C336.742 73.9007 336.805 73.8016 336.888 73.7189C336.97 73.6362 337.07 73.5717 337.179 73.5299C337.289 73.4879 337.405 73.4692 337.522 73.4752H342.276C342.981 73.4752 343.333 73.8262 343.683 74.3526L353.188 89.4777H353.54Z" fill="white"/>
<path fill-rule="evenodd" clip-rule="evenodd" d="M380.994 93.1746H390.319C391.573 93.1746 392.259 92.4688 392.259 91.2365V80.3343C392.259 79.102 391.553 78.4003 390.319 78.4003H380.994V93.1746ZM391.733 73.4755C395.779 73.4755 397.889 75.564 397.889 79.6283V91.9425C397.889 95.9858 395.799 98.0995 391.733 98.0995H376.24C376.124 98.1061 376.005 98.088 375.895 98.046C375.785 98.004 375.685 97.9393 375.603 97.8561C375.52 97.773 375.455 97.6731 375.413 97.5631C375.37 97.4531 375.353 97.3356 375.36 97.2181V74.3526C375.353 74.2355 375.372 74.1183 375.413 74.009C375.457 73.8995 375.522 73.8001 375.605 73.7173C375.687 73.6346 375.787 73.5703 375.897 73.5286C376.007 73.487 376.124 73.4688 376.24 73.4755H391.733Z" fill="white"/>
<path fill-rule="evenodd" clip-rule="evenodd" d="M428.689 90.8853C428.689 90.0081 428.159 89.4443 427.105 89.1268L417.425 86.1359C414.606 85.2588 413.198 83.8511 413.198 80.8603V79.2771C413.198 75.2336 415.288 73.1201 419.359 73.1201H427.807C431.858 73.1201 433.968 75.2336 433.968 79.2771V81.0356C433.975 81.1531 433.957 81.2708 433.915 81.3808C433.873 81.4906 433.808 81.5904 433.725 81.6738C433.641 81.7569 433.541 81.8216 433.433 81.8636C433.323 81.9054 433.204 81.9238 433.086 81.9171H429.216C429.098 81.9238 428.981 81.9054 428.871 81.8636C428.761 81.8216 428.661 81.7569 428.578 81.6738C428.494 81.5904 428.429 81.4906 428.388 81.3808C428.346 81.2708 428.327 81.1531 428.334 81.0356V79.9831C428.334 78.7508 427.632 78.0449 426.398 78.0449H420.769C419.515 78.0449 418.832 78.7508 418.832 79.9831V80.334C418.832 81.2111 419.359 81.7751 420.412 82.0925L430.099 85.0833C432.911 85.9604 434.32 87.3681 434.32 90.3589V92.314C434.32 96.3573 432.23 98.4709 428.159 98.4709H418.846C414.795 98.4709 412.683 96.3573 412.683 92.314V90.5553C412.676 90.4381 412.695 90.3209 412.736 90.2113C412.778 90.1018 412.843 90.0021 412.926 89.9189C413.008 89.8358 413.108 89.7709 413.218 89.7288C413.327 89.6866 413.444 89.668 413.562 89.674H417.436C417.553 89.668 417.672 89.6866 417.78 89.7288C417.89 89.7709 417.99 89.8358 418.072 89.9189C418.155 90.0021 418.219 90.1018 418.26 90.2113C418.302 90.3209 418.32 90.4381 418.314 90.5553V91.6121C418.314 92.8403 419.021 93.5461 420.25 93.5461H426.766C427.996 93.5461 428.701 92.8403 428.701 91.6121L428.689 90.8853Z" fill="white"/>
<path fill-rule="evenodd" clip-rule="evenodd" d="M233.412 0L205.523 48.5798L213.092 56.1697L230.169 44.5698L219.764 44.553L233.375 20.8397L246.91 44.599L236.506 44.5823L253.539 56.2407L261.138 48.6717L233.412 0Z" fill="white"/>
<path fill-rule="evenodd" clip-rule="evenodd" d="M18.4552 145.539V132.21H10.003V189.972H18.4552V172.097H15.111V162.072H28.4581V193.4C28.4241 195.15 27.7046 196.817 26.4539 198.044C25.2033 199.269 23.5215 199.955 21.7699 199.955H6.68816C3.13088 199.955 0 196.955 0 193.4V128.877C0.0393823 127.117 0.756667 125.439 2.0025 124.195C3.24834 122.95 4.92672 122.233 6.68816 122.193H21.7867C22.665 122.193 23.5346 122.366 24.346 122.702C25.1575 123.038 25.8948 123.53 26.5159 124.151C27.1369 124.772 27.6296 125.508 27.9656 126.319C28.3019 127.13 28.4748 127.999 28.4748 128.877V145.539H18.4552Z" fill="white"/>
<path fill-rule="evenodd" clip-rule="evenodd" d="M42.4648 122.209H52.4678V189.97H64.2516V199.967H42.4648V122.209Z" fill="white"/>
<path fill-rule="evenodd" clip-rule="evenodd" d="M85.9293 189.97H94.3771V132.209H85.9293V189.97ZM75.9221 128.876C75.9615 127.116 76.6787 125.438 77.9245 124.194C79.1704 122.949 80.8488 122.232 82.6102 122.192H97.7297C99.5034 122.192 101.204 122.897 102.459 124.15C103.713 125.403 104.418 127.103 104.418 128.876V193.4C104.383 195.148 103.663 196.815 102.412 198.04C101.162 199.263 99.4804 199.95 97.7297 199.95H82.5935C79.0362 199.95 75.9053 196.95 75.9053 193.4L75.9221 128.876Z" fill="white"/>
<path fill-rule="evenodd" clip-rule="evenodd" d="M128.396 189.97H136.844V164.866H128.396V189.97ZM128.396 154.883H135.619V132.209H128.396V154.883ZM118.389 122.222H138.955C140.729 122.222 142.43 122.926 143.684 124.179C144.938 125.433 145.643 127.133 145.643 128.905V153.897C145.643 156.675 144.197 158.784 142.194 159.327C145.196 159.995 146.863 163.086 146.863 165.881V193.45C146.829 195.195 146.111 196.858 144.865 198.082C143.619 199.307 141.943 199.995 140.196 200H118.389V122.222Z" fill="white"/>
<path fill-rule="evenodd" clip-rule="evenodd" d="M170.415 174.753H179.328L174.858 132.209L170.415 174.753ZM180.419 184.748H169.294L167.74 199.967H157.741L165.951 122.209H183.738L191.742 199.967H181.973L180.419 184.748Z" fill="white"/>
<path fill-rule="evenodd" clip-rule="evenodd" d="M203.099 122.209H213.102V189.97H224.886V199.967H203.099V122.209Z" fill="white"/>
<path fill-rule="evenodd" clip-rule="evenodd" d="M262.455 176.528V189.97H270.903V164.866H259.12C257.367 164.866 255.686 164.18 254.435 162.954C253.184 161.729 252.465 160.062 252.432 158.312V128.876C252.432 124.987 255.102 122.192 259.12 122.192H274.239C278 122.192 280.927 124.97 280.927 128.746V145.075H270.903V132.209H262.455V154.87H274.239C276.008 154.87 277.706 155.571 278.961 156.82C280.215 158.069 280.92 159.764 280.927 161.532V193.4C280.892 195.15 280.173 196.817 278.922 198.042C277.671 199.267 275.99 199.953 274.239 199.953H259.12C255.562 199.953 252.432 196.955 252.432 193.4V176.528H262.455Z" fill="white"/>
<path fill-rule="evenodd" clip-rule="evenodd" d="M320.704 199.967H294.912V122.209H319.927V132.209H304.919V153.646H315.478V163.642H304.919V189.97H320.704V199.967Z" fill="white"/>
<path fill-rule="evenodd" clip-rule="evenodd" d="M343.604 156.98H350.831V132.209H343.604V156.98ZM352.051 166.975H343.604V199.975H333.602V122.209H354.163C355.936 122.209 357.637 122.914 358.891 124.167C360.145 125.42 360.851 127.12 360.851 128.893V155.994C360.851 158.772 359.405 160.885 357.407 161.424C360.407 162.088 362.075 165.183 362.075 167.978V199.967H352.051V166.975Z" fill="white"/>
<path fill-rule="evenodd" clip-rule="evenodd" d="M375.508 199.97H385.515V122.209H375.508V199.97Z" fill="white"/>
<path fill-rule="evenodd" clip-rule="evenodd" d="M425.307 199.967H399.516V122.209H424.53V132.209H409.523V153.646H420.082V163.642H409.523V189.97H425.307V199.967Z" fill="white"/>
<path fill-rule="evenodd" clip-rule="evenodd" d="M448.205 176.528V189.97H456.658V164.866H444.875C443.122 164.866 441.44 164.18 440.19 162.954C438.939 161.729 438.22 160.062 438.187 158.312V128.876C438.187 124.987 440.853 122.192 444.875 122.192H459.989C463.751 122.192 466.677 124.97 466.677 128.746V145.075H456.675V132.209H448.222V154.87H460.005C461.777 154.87 463.475 155.571 464.727 156.82C465.981 158.069 466.689 159.764 466.694 161.532V193.4C466.66 195.15 465.941 196.817 464.69 198.042C463.44 199.267 461.758 199.953 460.005 199.953H444.891C441.329 199.953 438.203 196.955 438.203 193.4V176.528H448.205Z" fill="white"/>
<path fill-rule="evenodd" clip-rule="evenodd" d="M18.4552 145.538V132.209H10.003V189.97H18.4552V172.097H15.111V162.071H28.4581V193.4C28.4241 195.15 27.7046 196.817 26.4539 198.042C25.2033 199.267 23.5215 199.953 21.7699 199.953H6.68816C3.13088 199.953 0 196.955 0 193.4V128.876C0.0393823 127.116 0.756667 125.438 2.0025 124.194C3.24834 122.949 4.92672 122.232 6.68816 122.192H21.7867C22.665 122.192 23.5346 122.365 24.346 122.701C25.1575 123.037 25.8948 123.529 26.5159 124.15C27.1369 124.771 27.6296 125.507 27.9656 126.318C28.3019 127.129 28.4748 127.998 28.4748 128.876V145.538H18.4552Z" fill="white"/>
<path fill-rule="evenodd" clip-rule="evenodd" d="M42.4648 122.209H52.4678V189.97H64.2516V199.967H42.4648V122.209Z" fill="white"/>
<path fill-rule="evenodd" clip-rule="evenodd" d="M85.9293 189.97H94.3771V132.209H85.9293V189.97ZM75.9221 128.876C75.9615 127.116 76.6787 125.438 77.9245 124.194C79.1704 122.949 80.8488 122.232 82.6102 122.192H97.7297C99.5034 122.192 101.204 122.897 102.459 124.15C103.713 125.403 104.418 127.103 104.418 128.876V193.4C104.383 195.148 103.663 196.815 102.412 198.04C101.162 199.263 99.4804 199.95 97.7297 199.95H82.5935C79.0362 199.95 75.9053 196.95 75.9053 193.4L75.9221 128.876Z" fill="white"/>
<path fill-rule="evenodd" clip-rule="evenodd" d="M128.396 189.97H136.844V164.866H128.396V189.97ZM128.396 154.883H135.619V132.209H128.396V154.883ZM118.389 122.222H138.955C140.729 122.222 142.43 122.926 143.684 124.179C144.938 125.433 145.643 127.133 145.643 128.905V153.897C145.643 156.675 144.197 158.784 142.194 159.327C145.196 159.995 146.863 163.086 146.863 165.881V193.45C146.829 195.195 146.111 196.858 144.865 198.082C143.619 199.307 141.943 199.995 140.196 200H118.389V122.222Z" fill="white"/>
<path fill-rule="evenodd" clip-rule="evenodd" d="M170.415 174.753H179.328L174.858 132.209L170.415 174.753ZM180.419 184.748H169.294L167.74 199.967H157.741L165.951 122.209H183.738L191.742 199.967H181.973L180.419 184.748Z" fill="white"/>
<path fill-rule="evenodd" clip-rule="evenodd" d="M203.099 122.209H213.102V189.97H224.886V199.967H203.099V122.209Z" fill="white"/>
<path fill-rule="evenodd" clip-rule="evenodd" d="M262.455 176.528V189.97H270.903V164.866H259.12C257.367 164.866 255.686 164.18 254.435 162.954C253.184 161.729 252.465 160.062 252.432 158.312V128.876C252.432 124.987 255.102 122.192 259.12 122.192H274.239C278 122.192 280.927 124.97 280.927 128.746V145.075H270.903V132.209H262.455V154.87H274.239C276.008 154.87 277.706 155.571 278.961 156.82C280.215 158.069 280.92 159.764 280.927 161.532V193.4C280.892 195.15 280.173 196.817 278.922 198.042C277.671 199.267 275.99 199.953 274.239 199.953H259.12C255.562 199.953 252.432 196.955 252.432 193.4V176.528H262.455Z" fill="white"/>
<path fill-rule="evenodd" clip-rule="evenodd" d="M320.704 199.967H294.912V122.209H319.927V132.209H304.919V153.646H315.478V163.642H304.919V189.97H320.704V199.967Z" fill="white"/>
<path fill-rule="evenodd" clip-rule="evenodd" d="M343.604 156.98H350.831V132.209H343.604V156.98ZM352.051 166.975H343.604V199.975H333.602V122.209H354.163C355.936 122.209 357.637 122.914 358.891 124.167C360.145 125.42 360.851 127.12 360.851 128.893V155.994C360.851 158.772 359.405 160.885 357.407 161.424C360.407 162.088 362.075 165.183 362.075 167.978V199.967H352.051V166.975Z" fill="white"/>
<path fill-rule="evenodd" clip-rule="evenodd" d="M375.508 199.97H385.515V122.209H375.508V199.97Z" fill="white"/>
<path fill-rule="evenodd" clip-rule="evenodd" d="M425.307 199.967H399.516V122.209H424.53V132.209H409.523V153.646H420.082V163.642H409.523V189.97H425.307V199.967Z" fill="white"/>
<path fill-rule="evenodd" clip-rule="evenodd" d="M448.205 176.528V189.97H456.658V164.866H444.875C443.122 164.866 441.44 164.18 440.19 162.954C438.939 161.729 438.22 160.062 438.187 158.312V128.876C438.187 124.987 440.853 122.192 444.875 122.192H459.989C463.751 122.192 466.677 124.97 466.677 128.746V145.075H456.675V132.209H448.222V154.87H460.005C461.777 154.87 463.475 155.571 464.727 156.82C465.981 158.069 466.689 159.764 466.694 161.532V193.4C466.66 195.15 465.941 196.817 464.69 198.042C463.44 199.267 461.758 199.953 460.005 199.953H444.891C441.329 199.953 438.203 196.955 438.203 193.4V176.528H448.205Z" fill="white"/>
<path d="M437.656 72.7773C437.676 72.7783 437.694 72.7867 437.707 72.8005C437.721 72.8143 437.729 72.8328 437.731 72.8525V73.1032C437.731 73.1235 437.722 73.143 437.709 73.1578C437.696 73.1727 437.676 73.1815 437.656 73.1825H436.915V75.1417C436.915 75.1605 436.907 75.1785 436.894 75.1923C436.882 75.2062 436.864 75.2148 436.845 75.2168H436.585C436.567 75.2158 436.547 75.2075 436.533 75.1937C436.52 75.1797 436.512 75.1612 436.51 75.1417V73.1825H435.771C435.749 73.1815 435.731 73.1727 435.718 73.1578C435.703 73.143 435.694 73.1235 435.694 73.1032V72.8525C435.696 72.8328 435.704 72.8143 435.718 72.8005C435.733 72.7867 435.751 72.7783 435.771 72.7773H437.656Z" fill="white"/>
<path d="M440.139 75.2169C440.114 75.2199 440.089 75.2139 440.069 75.2001C440.048 75.1864 440.033 75.1656 440.026 75.1418L439.324 73.5544H439.287V75.1418C439.285 75.1614 439.277 75.1799 439.264 75.1938C439.25 75.2078 439.23 75.2159 439.212 75.2169H438.952C438.934 75.2149 438.915 75.2063 438.904 75.1924C438.89 75.1788 438.882 75.1608 438.882 75.1418V72.8528C438.882 72.8338 438.89 72.8158 438.904 72.8019C438.915 72.7881 438.934 72.7794 438.952 72.7776H439.287C439.312 72.7746 439.336 72.7806 439.357 72.7943C439.377 72.8081 439.392 72.8288 439.399 72.8528L440.211 74.699H440.248L441.083 72.8528C441.09 72.8291 441.105 72.8086 441.125 72.7948C441.143 72.7809 441.169 72.7748 441.194 72.7776H441.527C441.547 72.7786 441.565 72.7868 441.579 72.8006C441.594 72.8146 441.602 72.8331 441.602 72.8528V75.1418C441.602 75.1614 441.594 75.1799 441.579 75.1938C441.565 75.2078 441.547 75.2159 441.527 75.2169H441.269C441.249 75.2159 441.23 75.2078 441.215 75.1938C441.202 75.1799 441.194 75.1614 441.194 75.1418V73.5544H441.155L440.453 75.1418C440.446 75.1653 440.433 75.186 440.413 75.1998C440.393 75.2136 440.368 75.2198 440.345 75.2169H440.139Z" fill="white"/>
<path d="M437.656 72.7773C437.676 72.7783 437.694 72.7867 437.707 72.8005C437.721 72.8143 437.729 72.8328 437.731 72.8525V73.1032C437.731 73.1235 437.722 73.143 437.709 73.1578C437.696 73.1727 437.676 73.1815 437.656 73.1825H436.915V75.1417C436.915 75.1605 436.907 75.1785 436.894 75.1923C436.882 75.2062 436.864 75.2148 436.845 75.2168H436.585C436.567 75.2158 436.547 75.2075 436.533 75.1937C436.52 75.1797 436.512 75.1612 436.51 75.1417V73.1825H435.771C435.749 73.1815 435.731 73.1727 435.718 73.1578C435.703 73.143 435.694 73.1235 435.694 73.1032V72.8525C435.696 72.8328 435.704 72.8143 435.718 72.8005C435.733 72.7867 435.751 72.7783 435.771 72.7773H437.656Z" fill="white"/>
<path d="M440.139 75.2169C440.114 75.2199 440.089 75.2139 440.069 75.2001C440.048 75.1864 440.033 75.1656 440.026 75.1418L439.324 73.5544H439.287V75.1418C439.285 75.1614 439.277 75.1799 439.264 75.1938C439.25 75.2078 439.23 75.2159 439.212 75.2169H438.952C438.934 75.2149 438.915 75.2063 438.904 75.1924C438.89 75.1788 438.882 75.1608 438.882 75.1418V72.8528C438.882 72.8338 438.89 72.8158 438.904 72.8019C438.915 72.7881 438.934 72.7794 438.952 72.7776H439.287C439.312 72.7746 439.336 72.7806 439.357 72.7943C439.377 72.8081 439.392 72.8288 439.399 72.8528L440.211 74.699H440.248L441.083 72.8528C441.09 72.8291 441.105 72.8086 441.125 72.7948C441.143 72.7809 441.169 72.7748 441.194 72.7776H441.527C441.547 72.7786 441.565 72.7868 441.579 72.8006C441.594 72.8146 441.602 72.8331 441.602 72.8528V75.1418C441.602 75.1614 441.594 75.1799 441.579 75.1938C441.565 75.2078 441.547 75.2159 441.527 75.2169H441.269C441.249 75.2159 441.23 75.2078 441.215 75.1938C441.202 75.1799 441.194 75.1614 441.194 75.1418V73.5544H441.155L440.453 75.1418C440.446 75.1653 440.433 75.186 440.413 75.1998C440.393 75.2136 440.368 75.2198 440.345 75.2169H440.139Z" fill="white"/>
</svg>
