<svg width="256" height="146" viewBox="0 0 256 146" fill="none" xmlns="http://www.w3.org/2000/svg">
<path d="M255.822 0H254.399H1.42321H0V1.12082V108.719V110H1.42321H256V0H255.822Z" fill="white"/>
<path d="M255 1V109H1V1H255Z" fill="black"/>
<path d="M68.089 4.95728H4.63525V22.7076H68.089V4.95728Z" fill="white"/>
<path d="M68.089 26.7053H4.63525V92.2694H68.089V26.7053Z" fill="white"/>
<path d="M4.63525 104.743V96.1074H17.4219V98.1863H9.74992V99.3057H16.1432V101.385H9.74992V102.664H17.5817V104.743H4.63525Z" fill="white"/>
<path d="M28.4504 98.666C28.4504 98.3462 28.1307 98.1863 27.6512 98.0264C27.3316 97.8665 26.8521 97.8665 26.3726 97.8665C25.2538 97.8665 24.7743 98.0264 24.7743 98.3462C24.7743 99.6255 33.7249 98.8259 33.7249 102.024C33.7249 104.103 30.6881 105.063 26.3726 105.063C22.2169 105.063 19.4998 103.783 19.4998 102.184H24.4546C24.6144 102.504 24.9341 102.664 25.2538 102.824C25.7333 102.984 26.2128 102.984 26.6923 102.984C27.9709 102.984 28.7701 102.824 28.7701 102.344C28.7701 101.065 19.8194 101.864 19.8194 98.666C19.8194 96.7471 22.6964 95.9475 26.5324 95.9475C30.8479 95.9475 32.7659 97.2268 33.2454 98.666H28.4504Z" fill="white"/>
<path d="M41.3969 99.7854H43.4747C45.0731 99.7854 45.8722 99.6255 45.8722 98.9858C45.8722 98.3462 45.0731 98.0264 43.7944 98.0264H41.3969V99.7854ZM41.3969 101.704V104.743H36.2822V96.1074H43.6346C48.7492 96.1074 50.5074 96.907 50.5074 98.666C50.5074 99.6255 49.7082 100.585 47.95 100.745C49.5484 101.065 50.6672 101.225 50.6672 102.984C50.6672 104.103 50.6672 104.583 51.1467 104.583V104.903H46.032C45.8722 104.743 45.7124 104.103 45.7124 103.303C45.7124 102.184 45.3927 101.864 42.9952 101.864H41.3969V101.704Z" fill="white"/>
<path d="M58.8188 98.1863V99.6255H60.8966C61.8556 99.6255 62.6548 99.3057 62.6548 98.8259C62.6548 98.1863 61.6958 98.1863 60.5769 98.1863H58.8188ZM58.8188 101.065V102.664H61.0564C62.3351 102.664 63.2941 102.504 63.2941 101.864C63.2941 101.065 62.1753 101.065 60.4171 101.065H58.8188ZM53.7041 104.743V96.1074H61.2163C64.7326 96.1074 67.4498 96.5872 67.4498 98.3462C67.4498 99.3057 66.3309 99.9453 65.3719 100.265C67.1301 100.585 67.9293 101.385 67.9293 102.184C67.9293 104.103 65.2121 104.743 61.2163 104.743H53.7041Z" fill="white"/>
<path d="M253 5H72V105H253V5Z" fill="white"/>
<path d="M79.1062 52V40.4987H83.4212C84.2999 40.4987 85.0033 40.6163 85.5316 40.8517C86.0651 41.0818 86.4809 41.4401 86.779 41.9265C87.0824 42.4077 87.2341 42.9124 87.2341 43.4407C87.2341 43.9323 87.1007 44.3952 86.8339 44.8293C86.5672 45.2634 86.1645 45.6139 85.6257 45.8806C86.3214 46.0846 86.8549 46.4324 87.2262 46.9241C87.6028 47.4157 87.7911 47.9963 87.7911 48.6657C87.7911 49.2045 87.676 49.7066 87.4459 50.1721C87.221 50.6323 86.9412 50.988 86.6064 51.239C86.2717 51.4901 85.8506 51.681 85.3433 51.8118C84.8412 51.9373 84.224 52 83.4918 52H79.1062ZM80.6282 45.3314H83.1152C83.7899 45.3314 84.2737 45.287 84.5666 45.1981C84.9537 45.083 85.2439 44.8921 85.4375 44.6253C85.6362 44.3586 85.7356 44.0239 85.7356 43.6211C85.7356 43.2393 85.6441 42.9046 85.461 42.6169C85.2779 42.324 85.0164 42.1253 84.6765 42.0207C84.3365 41.9108 83.7533 41.8559 82.9269 41.8559H80.6282V45.3314ZM80.6282 50.6428H83.4918C83.9834 50.6428 84.3286 50.6245 84.5274 50.5879C84.8778 50.5251 85.1707 50.4205 85.4061 50.274C85.6414 50.1276 85.835 49.9158 85.9866 49.6386C86.1383 49.3561 86.2142 49.0319 86.2142 48.6657C86.2142 48.2369 86.1043 47.8655 85.8846 47.5517C85.665 47.2326 85.359 47.0104 84.9667 46.8848C84.5797 46.7541 84.0201 46.6887 83.2878 46.6887H80.6282V50.6428Z" fill="black"/>
<path d="M89.674 52V40.4987H91.0862V52H89.674Z" fill="black"/>
<path d="M92.7572 47.8341C92.7572 46.2912 93.1861 45.1484 94.0439 44.4057C94.7604 43.7885 95.6339 43.4799 96.6643 43.4799C97.8097 43.4799 98.7459 43.8565 99.4729 44.6097C100.2 45.3576 100.563 46.3932 100.563 47.7164C100.563 48.7886 100.401 49.6333 100.077 50.2505C99.758 50.8625 99.2899 51.3384 98.6727 51.6784C98.0607 52.0183 97.3913 52.1883 96.6643 52.1883C95.4979 52.1883 94.5538 51.8144 93.8321 51.0664C93.1155 50.3185 92.7572 49.2411 92.7572 47.8341ZM94.2086 47.8341C94.2086 48.9011 94.4414 49.7013 94.9069 50.2348C95.3724 50.7631 95.9582 51.0272 96.6643 51.0272C97.3651 51.0272 97.9483 50.7605 98.4138 50.227C98.8793 49.6935 99.112 48.8802 99.112 47.7871C99.112 46.7567 98.8767 45.9774 98.4059 45.4491C97.9404 44.9156 97.3599 44.6489 96.6643 44.6489C95.9582 44.6489 95.3724 44.913 94.9069 45.4413C94.4414 45.9695 94.2086 46.7671 94.2086 47.8341Z" fill="black"/>
<path d="M101.701 47.8341C101.701 46.2912 102.13 45.1484 102.988 44.4057C103.704 43.7885 104.578 43.4799 105.608 43.4799C106.753 43.4799 107.69 43.8565 108.417 44.6097C109.144 45.3576 109.507 46.3932 109.507 47.7164C109.507 48.7886 109.345 49.6333 109.021 50.2505C108.702 50.8625 108.234 51.3384 107.616 51.6784C107.005 52.0183 106.335 52.1883 105.608 52.1883C104.442 52.1883 103.498 51.8144 102.776 51.0664C102.059 50.3185 101.701 49.2411 101.701 47.8341ZM103.152 47.8341C103.152 48.9011 103.385 49.7013 103.851 50.2348C104.316 50.7631 104.902 51.0272 105.608 51.0272C106.309 51.0272 106.892 50.7605 107.358 50.227C107.823 49.6935 108.056 48.8802 108.056 47.7871C108.056 46.7567 107.82 45.9774 107.35 45.4491C106.884 44.9156 106.304 44.6489 105.608 44.6489C104.902 44.6489 104.316 44.913 103.851 45.4413C103.385 45.9695 103.152 46.7671 103.152 47.8341Z" fill="black"/>
<path d="M116.576 52V50.9488C116.048 51.7751 115.271 52.1883 114.246 52.1883C113.582 52.1883 112.97 52.0053 112.41 51.6392C111.856 51.273 111.424 50.7631 111.116 50.1093C110.812 49.4503 110.66 48.6945 110.66 47.842C110.66 47.0104 110.799 46.2572 111.076 45.5825C111.353 44.9026 111.769 44.3821 112.324 44.0212C112.878 43.6604 113.498 43.4799 114.183 43.4799C114.685 43.4799 115.132 43.5871 115.525 43.8016C115.917 44.0108 116.236 44.2854 116.482 44.6253V40.4987H117.886V52H116.576ZM112.112 47.842C112.112 48.9089 112.337 49.7066 112.787 50.2348C113.236 50.7631 113.767 51.0272 114.379 51.0272C114.996 51.0272 115.519 50.7762 115.948 50.274C116.382 49.7667 116.599 48.9952 116.599 47.9597C116.599 46.8194 116.38 45.9826 115.94 45.4491C115.501 44.9156 114.96 44.6489 114.316 44.6489C113.689 44.6489 113.163 44.9052 112.74 45.4177C112.321 45.9303 112.112 46.7384 112.112 47.842Z" fill="black"/>
<path d="M82.4562 70L78 58.4987H79.6475L82.6366 66.854C82.8772 67.5235 83.0786 68.1511 83.2407 68.7369C83.4186 68.1093 83.6252 67.4817 83.8605 66.854L86.9673 58.4987H88.5207L84.0174 70H82.4562Z" fill="black"/>
<path d="M89.4151 60.1227V58.4987H90.8273V60.1227H89.4151ZM89.4151 70V61.6682H90.8273V70H89.4151Z" fill="black"/>
<path d="M92.4591 65.8341C92.4591 64.2912 92.888 63.1484 93.7458 62.4057C94.4623 61.7885 95.3358 61.4799 96.3661 61.4799C97.5116 61.4799 98.4478 61.8565 99.1748 62.6097C99.9018 63.3576 100.265 64.3932 100.265 65.7164C100.265 66.7886 100.103 67.6333 99.7789 68.2505C99.4598 68.8625 98.9917 69.3384 98.3746 69.6784C97.7626 70.0183 97.0931 70.1883 96.3661 70.1883C95.1998 70.1883 94.2557 69.8144 93.5339 69.0664C92.8174 68.3185 92.4591 67.2411 92.4591 65.8341ZM93.9105 65.8341C93.9105 66.9011 94.1433 67.7013 94.6088 68.2348C95.0742 68.7631 95.66 69.0272 96.3661 69.0272C97.067 69.0272 97.6502 68.7605 98.1157 68.227C98.5811 67.6935 98.8139 66.8802 98.8139 65.7871C98.8139 64.7567 98.5785 63.9774 98.1078 63.4491C97.6423 62.9156 97.0618 62.6489 96.3661 62.6489C95.66 62.6489 95.0742 62.913 94.6088 63.4413C94.1433 63.9695 93.9105 64.7671 93.9105 65.8341Z" fill="black"/>
<path d="M101.897 70V58.4987H103.309V70H101.897Z" fill="black"/>
<path d="M111.21 67.3169L112.669 67.4974C112.439 68.3499 112.013 69.0115 111.39 69.4822C110.768 69.953 109.973 70.1883 109.005 70.1883C107.786 70.1883 106.819 69.8144 106.102 69.0664C105.391 68.3133 105.035 67.2594 105.035 65.9047C105.035 64.503 105.396 63.4151 106.118 62.641C106.84 61.867 107.776 61.4799 108.927 61.4799C110.041 61.4799 110.951 61.8591 111.657 62.6175C112.363 63.3759 112.716 64.4429 112.716 65.8184C112.716 65.9021 112.713 66.0276 112.708 66.195H106.495C106.547 67.1103 106.806 67.8112 107.271 68.2976C107.737 68.784 108.317 69.0272 109.013 69.0272C109.531 69.0272 109.973 68.8912 110.339 68.6192C110.705 68.3473 110.995 67.9132 111.21 67.3169ZM106.573 65.0339H111.225C111.163 64.333 110.985 63.8074 110.692 63.457C110.242 62.913 109.659 62.641 108.942 62.641C108.294 62.641 107.747 62.8581 107.303 63.2922C106.863 63.7263 106.62 64.3069 106.573 65.0339Z" fill="black"/>
<path d="M114.45 70V61.6682H115.721V62.8529C116.333 61.9376 117.217 61.4799 118.373 61.4799C118.875 61.4799 119.335 61.5714 119.753 61.7545C120.177 61.9323 120.493 62.1677 120.703 62.4606C120.912 62.7535 121.058 63.1013 121.142 63.504C121.194 63.7655 121.22 64.2232 121.22 64.877V70H119.808V64.9319C119.808 64.3566 119.753 63.9277 119.643 63.6453C119.534 63.3576 119.338 63.1301 119.055 62.9627C118.778 62.7901 118.451 62.7038 118.074 62.7038C117.473 62.7038 116.953 62.8947 116.513 63.2765C116.079 63.6583 115.862 64.3827 115.862 65.4497V70H114.45Z" fill="black"/>
<path d="M128.83 66.9482L130.219 67.1286C130.067 68.0858 129.678 68.8363 129.05 69.3803C128.428 69.919 127.661 70.1883 126.751 70.1883C125.611 70.1883 124.693 69.817 123.998 69.0743C123.307 68.3264 122.962 67.2568 122.962 65.8655C122.962 64.9659 123.111 64.1787 123.409 63.504C123.707 62.8293 124.16 62.3246 124.767 61.9899C125.378 61.6499 126.043 61.4799 126.759 61.4799C127.664 61.4799 128.404 61.71 128.98 62.1703C129.555 62.6253 129.924 63.2739 130.086 64.116L128.713 64.3278C128.582 63.7682 128.349 63.3471 128.015 63.0647C127.685 62.7823 127.285 62.641 126.814 62.641C126.103 62.641 125.525 62.8973 125.08 63.4099C124.636 63.9172 124.413 64.7227 124.413 65.8263C124.413 66.9456 124.628 67.7589 125.057 68.2662C125.486 68.7735 126.045 69.0272 126.736 69.0272C127.29 69.0272 127.753 68.8572 128.124 68.5173C128.496 68.1773 128.731 67.6543 128.83 66.9482Z" fill="black"/>
<path d="M137.131 67.3169L138.59 67.4974C138.36 68.3499 137.934 69.0115 137.311 69.4822C136.689 69.953 135.894 70.1883 134.926 70.1883C133.708 70.1883 132.74 69.8144 132.024 69.0664C131.312 68.3133 130.957 67.2594 130.957 65.9047C130.957 64.503 131.317 63.4151 132.039 62.641C132.761 61.867 133.697 61.4799 134.848 61.4799C135.962 61.4799 136.872 61.8591 137.578 62.6175C138.284 63.3759 138.637 64.4429 138.637 65.8184C138.637 65.9021 138.635 66.0276 138.629 66.195H132.416C132.468 67.1103 132.727 67.8112 133.193 68.2976C133.658 68.784 134.239 69.0272 134.934 69.0272C135.452 69.0272 135.894 68.8912 136.26 68.6192C136.626 68.3473 136.916 67.9132 137.131 67.3169ZM132.494 65.0339H137.147C137.084 64.333 136.906 63.8074 136.613 63.457C136.163 62.913 135.58 62.641 134.864 62.641C134.215 62.641 133.668 62.8581 133.224 63.2922C132.785 63.7263 132.541 64.3069 132.494 65.0339Z" fill="black"/>
<path d="M9.90967 42.5368L58.9785 30.3834L62.6546 43.3363L46.991 47.3341L57.54 84.114L39.9583 88.4316L29.4093 51.6518L13.5858 55.6496L9.90967 42.5368Z" fill="black"/>
<path d="M53.0649 8.79517H57.2206L62.1754 14.3921L62.0156 11.9934V8.79517H66.1713V18.8696H62.0156L57.2206 13.4326V15.8313L57.3804 18.8696H53.0649V8.79517Z" fill="black"/>
<path d="M38.0405 8.79517H49.2289V11.1939H42.5159V12.6331H48.11V15.0317H42.5159V16.6309H49.3887V18.8696H38.0405V8.79517Z" fill="black"/>
<path d="M22.5369 8.79517H33.5654V11.1939H27.0122V12.6331H32.6064V15.0317H27.0122V16.6309H33.885V18.8696H22.5369V8.79517Z" fill="black"/>
<path d="M6.39355 8.79517H18.8605V11.5137H14.8647V18.8696H10.3894V11.5137H6.39355V8.79517Z" fill="black"/>
<path d="M256 108H0V146H256V108Z" fill="white"/>
<path d="M255 108H1V145H255V108Z" fill="black"/>
<path d="M253 109H3V143H253V109Z" fill="white"/>
<path d="M96.6914 113.41H97.8281V118.373C97.8281 119.236 97.7305 119.922 97.5352 120.43C97.3398 120.938 96.9863 121.352 96.4746 121.672C95.9668 121.988 95.2988 122.146 94.4707 122.146C93.666 122.146 93.0078 122.008 92.4961 121.73C91.9844 121.453 91.6191 121.053 91.4004 120.529C91.1816 120.002 91.0723 119.283 91.0723 118.373V113.41H92.209V118.367C92.209 119.113 92.2773 119.664 92.4141 120.02C92.5547 120.371 92.793 120.643 93.1289 120.834C93.4688 121.025 93.8828 121.121 94.3711 121.121C95.207 121.121 95.8027 120.932 96.1582 120.553C96.5137 120.174 96.6914 119.445 96.6914 118.367V113.41ZM99.1699 120.143L100.213 119.979C100.271 120.396 100.434 120.717 100.699 120.939C100.969 121.162 101.344 121.273 101.824 121.273C102.309 121.273 102.668 121.176 102.902 120.98C103.137 120.781 103.254 120.549 103.254 120.283C103.254 120.045 103.15 119.857 102.943 119.721C102.799 119.627 102.439 119.508 101.865 119.363C101.092 119.168 100.555 119 100.254 118.859C99.957 118.715 99.7305 118.518 99.5742 118.268C99.4219 118.014 99.3457 117.734 99.3457 117.43C99.3457 117.152 99.4082 116.896 99.5332 116.662C99.6621 116.424 99.8359 116.227 100.055 116.07C100.219 115.949 100.441 115.848 100.723 115.766C101.008 115.68 101.312 115.637 101.637 115.637C102.125 115.637 102.553 115.707 102.92 115.848C103.291 115.988 103.564 116.18 103.74 116.422C103.916 116.66 104.037 116.98 104.104 117.383L103.072 117.523C103.025 117.203 102.889 116.953 102.662 116.773C102.439 116.594 102.123 116.504 101.713 116.504C101.229 116.504 100.883 116.584 100.676 116.744C100.469 116.904 100.365 117.092 100.365 117.307C100.365 117.443 100.408 117.566 100.494 117.676C100.58 117.789 100.715 117.883 100.898 117.957C101.004 117.996 101.314 118.086 101.83 118.227C102.576 118.426 103.096 118.59 103.389 118.719C103.686 118.844 103.918 119.027 104.086 119.27C104.254 119.512 104.338 119.812 104.338 120.172C104.338 120.523 104.234 120.855 104.027 121.168C103.824 121.477 103.529 121.717 103.143 121.889C102.756 122.057 102.318 122.141 101.83 122.141C101.021 122.141 100.404 121.973 99.9785 121.637C99.5566 121.301 99.2871 120.803 99.1699 120.143ZM109.852 119.996L110.941 120.131C110.77 120.768 110.451 121.262 109.986 121.613C109.521 121.965 108.928 122.141 108.205 122.141C107.295 122.141 106.572 121.861 106.037 121.303C105.506 120.74 105.24 119.953 105.24 118.941C105.24 117.895 105.51 117.082 106.049 116.504C106.588 115.926 107.287 115.637 108.146 115.637C108.979 115.637 109.658 115.92 110.186 116.486C110.713 117.053 110.977 117.85 110.977 118.877C110.977 118.939 110.975 119.033 110.971 119.158H106.33C106.369 119.842 106.562 120.365 106.91 120.729C107.258 121.092 107.691 121.273 108.211 121.273C108.598 121.273 108.928 121.172 109.201 120.969C109.475 120.766 109.691 120.441 109.852 119.996ZM106.389 118.291H109.863C109.816 117.768 109.684 117.375 109.465 117.113C109.129 116.707 108.693 116.504 108.158 116.504C107.674 116.504 107.266 116.666 106.934 116.99C106.605 117.314 106.424 117.748 106.389 118.291ZM112.26 122V115.777H113.209V116.721C113.451 116.279 113.674 115.988 113.877 115.848C114.084 115.707 114.311 115.637 114.557 115.637C114.912 115.637 115.273 115.75 115.641 115.977L115.277 116.955C115.02 116.803 114.762 116.727 114.504 116.727C114.273 116.727 114.066 116.797 113.883 116.938C113.699 117.074 113.568 117.266 113.49 117.512C113.373 117.887 113.314 118.297 113.314 118.742V122H112.26ZM115.846 120.143L116.889 119.979C116.947 120.396 117.109 120.717 117.375 120.939C117.645 121.162 118.02 121.273 118.5 121.273C118.984 121.273 119.344 121.176 119.578 120.98C119.812 120.781 119.93 120.549 119.93 120.283C119.93 120.045 119.826 119.857 119.619 119.721C119.475 119.627 119.115 119.508 118.541 119.363C117.768 119.168 117.23 119 116.93 118.859C116.633 118.715 116.406 118.518 116.25 118.268C116.098 118.014 116.021 117.734 116.021 117.43C116.021 117.152 116.084 116.896 116.209 116.662C116.338 116.424 116.512 116.227 116.73 116.07C116.895 115.949 117.117 115.848 117.398 115.766C117.684 115.68 117.988 115.637 118.312 115.637C118.801 115.637 119.229 115.707 119.596 115.848C119.967 115.988 120.24 116.18 120.416 116.422C120.592 116.66 120.713 116.98 120.779 117.383L119.748 117.523C119.701 117.203 119.564 116.953 119.338 116.773C119.115 116.594 118.799 116.504 118.389 116.504C117.904 116.504 117.559 116.584 117.352 116.744C117.145 116.904 117.041 117.092 117.041 117.307C117.041 117.443 117.084 117.566 117.17 117.676C117.256 117.789 117.391 117.883 117.574 117.957C117.68 117.996 117.99 118.086 118.506 118.227C119.252 118.426 119.771 118.59 120.064 118.719C120.361 118.844 120.594 119.027 120.762 119.27C120.93 119.512 121.014 119.812 121.014 120.172C121.014 120.523 120.91 120.855 120.703 121.168C120.5 121.477 120.205 121.717 119.818 121.889C119.432 122.057 118.994 122.141 118.506 122.141C117.697 122.141 117.08 121.973 116.654 121.637C116.232 121.301 115.963 120.803 115.846 120.143ZM125.936 122V113.41H127.072V122H125.936ZM128.947 122V115.777H129.896V116.662C130.354 115.979 131.014 115.637 131.877 115.637C132.252 115.637 132.596 115.705 132.908 115.842C133.225 115.975 133.461 116.15 133.617 116.369C133.773 116.588 133.883 116.848 133.945 117.148C133.984 117.344 134.004 117.686 134.004 118.174V122H132.949V118.215C132.949 117.785 132.908 117.465 132.826 117.254C132.744 117.039 132.598 116.869 132.387 116.744C132.18 116.615 131.936 116.551 131.654 116.551C131.205 116.551 130.816 116.693 130.488 116.979C130.164 117.264 130.002 117.805 130.002 118.602V122H128.947ZM137.93 121.057L138.082 121.988C137.785 122.051 137.52 122.082 137.285 122.082C136.902 122.082 136.605 122.021 136.395 121.9C136.184 121.779 136.035 121.621 135.949 121.426C135.863 121.227 135.82 120.811 135.82 120.178V116.598H135.047V115.777H135.82V114.236L136.869 113.604V115.777H137.93V116.598H136.869V120.236C136.869 120.537 136.887 120.73 136.922 120.816C136.961 120.902 137.021 120.971 137.104 121.021C137.189 121.072 137.311 121.098 137.467 121.098C137.584 121.098 137.738 121.084 137.93 121.057ZM143.227 119.996L144.316 120.131C144.145 120.768 143.826 121.262 143.361 121.613C142.896 121.965 142.303 122.141 141.58 122.141C140.67 122.141 139.947 121.861 139.412 121.303C138.881 120.74 138.615 119.953 138.615 118.941C138.615 117.895 138.885 117.082 139.424 116.504C139.963 115.926 140.662 115.637 141.521 115.637C142.354 115.637 143.033 115.92 143.561 116.486C144.088 117.053 144.352 117.85 144.352 118.877C144.352 118.939 144.35 119.033 144.346 119.158H139.705C139.744 119.842 139.938 120.365 140.285 120.729C140.633 121.092 141.066 121.273 141.586 121.273C141.973 121.273 142.303 121.172 142.576 120.969C142.85 120.766 143.066 120.441 143.227 119.996ZM139.764 118.291H143.238C143.191 117.768 143.059 117.375 142.84 117.113C142.504 116.707 142.068 116.504 141.533 116.504C141.049 116.504 140.641 116.666 140.309 116.99C139.98 117.314 139.799 117.748 139.764 118.291ZM145.635 122V115.777H146.584V116.721C146.826 116.279 147.049 115.988 147.252 115.848C147.459 115.707 147.686 115.637 147.932 115.637C148.287 115.637 148.648 115.75 149.016 115.977L148.652 116.955C148.395 116.803 148.137 116.727 147.879 116.727C147.648 116.727 147.441 116.797 147.258 116.938C147.074 117.074 146.943 117.266 146.865 117.512C146.748 117.887 146.689 118.297 146.689 118.742V122H145.635ZM153.703 121.232C153.312 121.564 152.936 121.799 152.572 121.936C152.213 122.072 151.826 122.141 151.412 122.141C150.729 122.141 150.203 121.975 149.836 121.643C149.469 121.307 149.285 120.879 149.285 120.359C149.285 120.055 149.354 119.777 149.49 119.527C149.631 119.273 149.812 119.07 150.035 118.918C150.262 118.766 150.516 118.65 150.797 118.572C151.004 118.518 151.316 118.465 151.734 118.414C152.586 118.312 153.213 118.191 153.615 118.051C153.619 117.906 153.621 117.814 153.621 117.775C153.621 117.346 153.521 117.043 153.322 116.867C153.053 116.629 152.652 116.51 152.121 116.51C151.625 116.51 151.258 116.598 151.02 116.773C150.785 116.945 150.611 117.252 150.498 117.693L149.467 117.553C149.561 117.111 149.715 116.756 149.93 116.486C150.145 116.213 150.455 116.004 150.861 115.859C151.268 115.711 151.738 115.637 152.273 115.637C152.805 115.637 153.236 115.699 153.568 115.824C153.9 115.949 154.145 116.107 154.301 116.299C154.457 116.486 154.566 116.725 154.629 117.014C154.664 117.193 154.682 117.518 154.682 117.986V119.393C154.682 120.373 154.703 120.994 154.746 121.256C154.793 121.514 154.883 121.762 155.016 122H153.914C153.805 121.781 153.734 121.525 153.703 121.232ZM153.615 118.877C153.232 119.033 152.658 119.166 151.893 119.275C151.459 119.338 151.152 119.408 150.973 119.486C150.793 119.564 150.654 119.68 150.557 119.832C150.459 119.98 150.41 120.146 150.41 120.33C150.41 120.611 150.516 120.846 150.727 121.033C150.941 121.221 151.254 121.314 151.664 121.314C152.07 121.314 152.432 121.227 152.748 121.051C153.064 120.871 153.297 120.627 153.445 120.318C153.559 120.08 153.615 119.729 153.615 119.264V118.877ZM160.383 119.721L161.42 119.855C161.307 120.57 161.016 121.131 160.547 121.537C160.082 121.939 159.51 122.141 158.83 122.141C157.979 122.141 157.293 121.863 156.773 121.309C156.258 120.75 156 119.951 156 118.912C156 118.24 156.111 117.652 156.334 117.148C156.557 116.645 156.895 116.268 157.348 116.018C157.805 115.764 158.301 115.637 158.836 115.637C159.512 115.637 160.064 115.809 160.494 116.152C160.924 116.492 161.199 116.977 161.32 117.605L160.295 117.764C160.197 117.346 160.023 117.031 159.773 116.82C159.527 116.609 159.229 116.504 158.877 116.504C158.346 116.504 157.914 116.695 157.582 117.078C157.25 117.457 157.084 118.059 157.084 118.883C157.084 119.719 157.244 120.326 157.564 120.705C157.885 121.084 158.303 121.273 158.818 121.273C159.232 121.273 159.578 121.146 159.855 120.893C160.133 120.639 160.309 120.248 160.383 119.721ZM164.625 121.057L164.777 121.988C164.48 122.051 164.215 122.082 163.98 122.082C163.598 122.082 163.301 122.021 163.09 121.9C162.879 121.779 162.73 121.621 162.645 121.426C162.559 121.227 162.516 120.811 162.516 120.178V116.598H161.742V115.777H162.516V114.236L163.564 113.604V115.777H164.625V116.598H163.564V120.236C163.564 120.537 163.582 120.73 163.617 120.816C163.656 120.902 163.717 120.971 163.799 121.021C163.885 121.072 164.006 121.098 164.162 121.098C164.279 121.098 164.434 121.084 164.625 121.057ZM6.49219 136V127.41H7.62891V136H6.49219ZM9.50391 136V129.777H10.4531V130.662C10.9102 129.979 11.5703 129.637 12.4336 129.637C12.8086 129.637 13.1523 129.705 13.4648 129.842C13.7812 129.975 14.0176 130.15 14.1738 130.369C14.3301 130.588 14.4395 130.848 14.502 131.148C14.541 131.344 14.5605 131.686 14.5605 132.174V136H13.5059V132.215C13.5059 131.785 13.4648 131.465 13.3828 131.254C13.3008 131.039 13.1543 130.869 12.9434 130.744C12.7363 130.615 12.4922 130.551 12.2109 130.551C11.7617 130.551 11.373 130.693 11.0449 130.979C10.7207 131.264 10.5586 131.805 10.5586 132.602V136H9.50391ZM15.7734 133.422V132.361H19.0137V133.422H15.7734ZM24.334 132.631V131.623L27.9727 131.617V134.805C27.4141 135.25 26.8379 135.586 26.2441 135.812C25.6504 136.035 25.041 136.146 24.416 136.146C23.5723 136.146 22.8047 135.967 22.1133 135.607C21.4258 135.244 20.9062 134.721 20.5547 134.037C20.2031 133.354 20.0273 132.59 20.0273 131.746C20.0273 130.91 20.2012 130.131 20.5488 129.408C20.9004 128.682 21.4043 128.143 22.0605 127.791C22.7168 127.439 23.4727 127.264 24.3281 127.264C24.9492 127.264 25.5098 127.365 26.0098 127.568C26.5137 127.768 26.9082 128.047 27.1934 128.406C27.4785 128.766 27.6953 129.234 27.8438 129.812L26.8184 130.094C26.6895 129.656 26.5293 129.312 26.3379 129.062C26.1465 128.812 25.873 128.613 25.5176 128.465C25.1621 128.312 24.7676 128.236 24.334 128.236C23.8145 128.236 23.3652 128.316 22.9863 128.477C22.6074 128.633 22.3008 128.84 22.0664 129.098C21.8359 129.355 21.6562 129.639 21.5273 129.947C21.3086 130.479 21.1992 131.055 21.1992 131.676C21.1992 132.441 21.3301 133.082 21.5918 133.598C21.8574 134.113 22.2422 134.496 22.7461 134.746C23.25 134.996 23.7852 135.121 24.3516 135.121C24.8438 135.121 25.3242 135.027 25.793 134.84C26.2617 134.648 26.6172 134.445 26.8594 134.23V132.631H24.334ZM33.5801 135.232C33.1895 135.564 32.8125 135.799 32.4492 135.936C32.0898 136.072 31.7031 136.141 31.2891 136.141C30.6055 136.141 30.0801 135.975 29.7129 135.643C29.3457 135.307 29.1621 134.879 29.1621 134.359C29.1621 134.055 29.2305 133.777 29.3672 133.527C29.5078 133.273 29.6895 133.07 29.9121 132.918C30.1387 132.766 30.3926 132.65 30.6738 132.572C30.8809 132.518 31.1934 132.465 31.6113 132.414C32.4629 132.312 33.0898 132.191 33.4922 132.051C33.4961 131.906 33.498 131.814 33.498 131.775C33.498 131.346 33.3984 131.043 33.1992 130.867C32.9297 130.629 32.5293 130.51 31.998 130.51C31.502 130.51 31.1348 130.598 30.8965 130.773C30.6621 130.945 30.4883 131.252 30.375 131.693L29.3438 131.553C29.4375 131.111 29.5918 130.756 29.8066 130.486C30.0215 130.213 30.332 130.004 30.7383 129.859C31.1445 129.711 31.6152 129.637 32.1504 129.637C32.6816 129.637 33.1133 129.699 33.4453 129.824C33.7773 129.949 34.0215 130.107 34.1777 130.299C34.334 130.486 34.4434 130.725 34.5059 131.014C34.541 131.193 34.5586 131.518 34.5586 131.986V133.393C34.5586 134.373 34.5801 134.994 34.623 135.256C34.6699 135.514 34.7598 135.762 34.8926 136H33.791C33.6816 135.781 33.6113 135.525 33.5801 135.232ZM33.4922 132.877C33.1094 133.033 32.5352 133.166 31.7695 133.275C31.3359 133.338 31.0293 133.408 30.8496 133.486C30.6699 133.564 30.5312 133.68 30.4336 133.832C30.3359 133.98 30.2871 134.146 30.2871 134.33C30.2871 134.611 30.3926 134.846 30.6035 135.033C30.8184 135.221 31.1309 135.314 31.541 135.314C31.9473 135.314 32.3086 135.227 32.625 135.051C32.9414 134.871 33.1738 134.627 33.3223 134.318C33.4355 134.08 33.4922 133.729 33.4922 133.264V132.877ZM36.1992 136V129.777H37.1426V130.65C37.3379 130.346 37.5977 130.102 37.9219 129.918C38.2461 129.73 38.6152 129.637 39.0293 129.637C39.4902 129.637 39.8672 129.732 40.1602 129.924C40.457 130.115 40.666 130.383 40.7871 130.727C41.2793 130 41.9199 129.637 42.709 129.637C43.3262 129.637 43.8008 129.809 44.1328 130.152C44.4648 130.492 44.6309 131.018 44.6309 131.729V136H43.582V132.08C43.582 131.658 43.5469 131.355 43.4766 131.172C43.4102 130.984 43.2871 130.834 43.1074 130.721C42.9277 130.607 42.7168 130.551 42.4746 130.551C42.0371 130.551 41.6738 130.697 41.3848 130.99C41.0957 131.279 40.9512 131.744 40.9512 132.385V136H39.8965V131.957C39.8965 131.488 39.8105 131.137 39.6387 130.902C39.4668 130.668 39.1855 130.551 38.7949 130.551C38.498 130.551 38.2227 130.629 37.9688 130.785C37.7188 130.941 37.5371 131.17 37.4238 131.471C37.3105 131.771 37.2539 132.205 37.2539 132.771V136H36.1992ZM50.4551 133.996L51.5449 134.131C51.373 134.768 51.0547 135.262 50.5898 135.613C50.125 135.965 49.5312 136.141 48.8086 136.141C47.8984 136.141 47.1758 135.861 46.6406 135.303C46.1094 134.74 45.8438 133.953 45.8438 132.941C45.8438 131.895 46.1133 131.082 46.6523 130.504C47.1914 129.926 47.8906 129.637 48.75 129.637C49.582 129.637 50.2617 129.92 50.7891 130.486C51.3164 131.053 51.5801 131.85 51.5801 132.877C51.5801 132.939 51.5781 133.033 51.5742 133.158H46.9336C46.9727 133.842 47.166 134.365 47.5137 134.729C47.8613 135.092 48.2949 135.273 48.8145 135.273C49.2012 135.273 49.5312 135.172 49.8047 134.969C50.0781 134.766 50.2949 134.441 50.4551 133.996ZM46.9922 132.291H50.4668C50.4199 131.768 50.2871 131.375 50.0684 131.113C49.7324 130.707 49.2969 130.504 48.7617 130.504C48.2773 130.504 47.8691 130.666 47.5371 130.99C47.209 131.314 47.0273 131.748 46.9922 132.291ZM56.3496 136V127.41H59.5898C60.1602 127.41 60.5957 127.438 60.8965 127.492C61.3184 127.562 61.6719 127.697 61.957 127.896C62.2422 128.092 62.4707 128.367 62.6426 128.723C62.8184 129.078 62.9062 129.469 62.9062 129.895C62.9062 130.625 62.6738 131.244 62.209 131.752C61.7441 132.256 60.9043 132.508 59.6895 132.508H57.4863V136H56.3496ZM57.4863 131.494H59.707C60.4414 131.494 60.9629 131.357 61.2715 131.084C61.5801 130.811 61.7344 130.426 61.7344 129.93C61.7344 129.57 61.6426 129.264 61.459 129.01C61.2793 128.752 61.041 128.582 60.7441 128.5C60.5527 128.449 60.1992 128.424 59.6836 128.424H57.4863V131.494ZM68.2969 136V135.086C67.8125 135.789 67.1543 136.141 66.3223 136.141C65.9551 136.141 65.6113 136.07 65.291 135.93C64.9746 135.789 64.7383 135.613 64.582 135.402C64.4297 135.188 64.3223 134.926 64.2598 134.617C64.2168 134.41 64.1953 134.082 64.1953 133.633V129.777H65.25V133.229C65.25 133.779 65.2715 134.15 65.3145 134.342C65.3809 134.619 65.5215 134.838 65.7363 134.998C65.9512 135.154 66.2168 135.232 66.5332 135.232C66.8496 135.232 67.1465 135.152 67.4238 134.992C67.7012 134.828 67.8965 134.607 68.0098 134.33C68.127 134.049 68.1855 133.643 68.1855 133.111V129.777H69.2402V136H68.2969ZM70.8867 136V129.777H71.8359V130.721C72.0781 130.279 72.3008 129.988 72.5039 129.848C72.7109 129.707 72.9375 129.637 73.1836 129.637C73.5391 129.637 73.9004 129.75 74.2676 129.977L73.9043 130.955C73.6465 130.803 73.3887 130.727 73.1309 130.727C72.9004 130.727 72.6934 130.797 72.5098 130.938C72.3262 131.074 72.1953 131.266 72.1172 131.512C72 131.887 71.9414 132.297 71.9414 132.742V136H70.8867ZM78.9551 133.721L79.9922 133.855C79.8789 134.57 79.5879 135.131 79.1191 135.537C78.6543 135.939 78.082 136.141 77.4023 136.141C76.5508 136.141 75.8652 135.863 75.3457 135.309C74.8301 134.75 74.5723 133.951 74.5723 132.912C74.5723 132.24 74.6836 131.652 74.9062 131.148C75.1289 130.645 75.4668 130.268 75.9199 130.018C76.377 129.764 76.873 129.637 77.4082 129.637C78.084 129.637 78.6367 129.809 79.0664 130.152C79.4961 130.492 79.7715 130.977 79.8926 131.605L78.8672 131.764C78.7695 131.346 78.5957 131.031 78.3457 130.82C78.0996 130.609 77.8008 130.504 77.4492 130.504C76.918 130.504 76.4863 130.695 76.1543 131.078C75.8223 131.457 75.6562 132.059 75.6562 132.883C75.6562 133.719 75.8164 134.326 76.1367 134.705C76.457 135.084 76.875 135.273 77.3906 135.273C77.8047 135.273 78.1504 135.146 78.4277 134.893C78.7051 134.639 78.8809 134.248 78.9551 133.721ZM80.8945 136V127.41H81.9492V130.492C82.4414 129.922 83.0625 129.637 83.8125 129.637C84.2734 129.637 84.6738 129.729 85.0137 129.912C85.3535 130.092 85.5957 130.342 85.7402 130.662C85.8887 130.982 85.9629 131.447 85.9629 132.057V136H84.9082V132.057C84.9082 131.529 84.793 131.146 84.5625 130.908C84.3359 130.666 84.0137 130.545 83.5957 130.545C83.2832 130.545 82.9883 130.627 82.7109 130.791C82.4375 130.951 82.2422 131.17 82.125 131.447C82.0078 131.725 81.9492 132.107 81.9492 132.596V136H80.8945ZM91.6348 135.232C91.2441 135.564 90.8672 135.799 90.5039 135.936C90.1445 136.072 89.7578 136.141 89.3438 136.141C88.6602 136.141 88.1348 135.975 87.7676 135.643C87.4004 135.307 87.2168 134.879 87.2168 134.359C87.2168 134.055 87.2852 133.777 87.4219 133.527C87.5625 133.273 87.7441 133.07 87.9668 132.918C88.1934 132.766 88.4473 132.65 88.7285 132.572C88.9355 132.518 89.248 132.465 89.666 132.414C90.5176 132.312 91.1445 132.191 91.5469 132.051C91.5508 131.906 91.5527 131.814 91.5527 131.775C91.5527 131.346 91.4531 131.043 91.2539 130.867C90.9844 130.629 90.584 130.51 90.0527 130.51C89.5566 130.51 89.1895 130.598 88.9512 130.773C88.7168 130.945 88.543 131.252 88.4297 131.693L87.3984 131.553C87.4922 131.111 87.6465 130.756 87.8613 130.486C88.0762 130.213 88.3867 130.004 88.793 129.859C89.1992 129.711 89.6699 129.637 90.2051 129.637C90.7363 129.637 91.168 129.699 91.5 129.824C91.832 129.949 92.0762 130.107 92.2324 130.299C92.3887 130.486 92.498 130.725 92.5605 131.014C92.5957 131.193 92.6133 131.518 92.6133 131.986V133.393C92.6133 134.373 92.6348 134.994 92.6777 135.256C92.7246 135.514 92.8145 135.762 92.9473 136H91.8457C91.7363 135.781 91.666 135.525 91.6348 135.232ZM91.5469 132.877C91.1641 133.033 90.5898 133.166 89.8242 133.275C89.3906 133.338 89.084 133.408 88.9043 133.486C88.7246 133.564 88.5859 133.68 88.4883 133.832C88.3906 133.98 88.3418 134.146 88.3418 134.33C88.3418 134.611 88.4473 134.846 88.6582 135.033C88.873 135.221 89.1855 135.314 89.5957 135.314C90.002 135.314 90.3633 135.227 90.6797 135.051C90.9961 134.871 91.2285 134.627 91.377 134.318C91.4902 134.08 91.5469 133.729 91.5469 133.264V132.877ZM93.832 134.143L94.875 133.979C94.9336 134.396 95.0957 134.717 95.3613 134.939C95.6309 135.162 96.0059 135.273 96.4863 135.273C96.9707 135.273 97.3301 135.176 97.5645 134.98C97.7988 134.781 97.916 134.549 97.916 134.283C97.916 134.045 97.8125 133.857 97.6055 133.721C97.4609 133.627 97.1016 133.508 96.5273 133.363C95.7539 133.168 95.2168 133 94.916 132.859C94.6191 132.715 94.3926 132.518 94.2363 132.268C94.084 132.014 94.0078 131.734 94.0078 131.43C94.0078 131.152 94.0703 130.896 94.1953 130.662C94.3242 130.424 94.498 130.227 94.7168 130.07C94.8809 129.949 95.1035 129.848 95.3848 129.766C95.6699 129.68 95.9746 129.637 96.2988 129.637C96.7871 129.637 97.2148 129.707 97.582 129.848C97.9531 129.988 98.2266 130.18 98.4023 130.422C98.5781 130.66 98.6992 130.98 98.7656 131.383L97.7344 131.523C97.6875 131.203 97.5508 130.953 97.3242 130.773C97.1016 130.594 96.7852 130.504 96.375 130.504C95.8906 130.504 95.5449 130.584 95.3379 130.744C95.1309 130.904 95.0273 131.092 95.0273 131.307C95.0273 131.443 95.0703 131.566 95.1562 131.676C95.2422 131.789 95.377 131.883 95.5605 131.957C95.666 131.996 95.9766 132.086 96.4922 132.227C97.2383 132.426 97.7578 132.59 98.0508 132.719C98.3477 132.844 98.5801 133.027 98.748 133.27C98.916 133.512 99 133.812 99 134.172C99 134.523 98.8965 134.855 98.6895 135.168C98.4863 135.477 98.1914 135.717 97.8047 135.889C97.418 136.057 96.9805 136.141 96.4922 136.141C95.6836 136.141 95.0664 135.973 94.6406 135.637C94.2188 135.301 93.9492 134.803 93.832 134.143ZM104.514 133.996L105.604 134.131C105.432 134.768 105.113 135.262 104.648 135.613C104.184 135.965 103.59 136.141 102.867 136.141C101.957 136.141 101.234 135.861 100.699 135.303C100.168 134.74 99.9023 133.953 99.9023 132.941C99.9023 131.895 100.172 131.082 100.711 130.504C101.25 129.926 101.949 129.637 102.809 129.637C103.641 129.637 104.32 129.92 104.848 130.486C105.375 131.053 105.639 131.85 105.639 132.877C105.639 132.939 105.637 133.033 105.633 133.158H100.992C101.031 133.842 101.225 134.365 101.572 134.729C101.92 135.092 102.354 135.273 102.873 135.273C103.26 135.273 103.59 135.172 103.863 134.969C104.137 134.766 104.354 134.441 104.514 133.996ZM101.051 132.291H104.525C104.479 131.768 104.346 131.375 104.127 131.113C103.791 130.707 103.355 130.504 102.82 130.504C102.336 130.504 101.928 130.666 101.596 130.99C101.268 131.314 101.086 131.748 101.051 132.291ZM106.512 134.143L107.555 133.979C107.613 134.396 107.775 134.717 108.041 134.939C108.311 135.162 108.686 135.273 109.166 135.273C109.65 135.273 110.01 135.176 110.244 134.98C110.479 134.781 110.596 134.549 110.596 134.283C110.596 134.045 110.492 133.857 110.285 133.721C110.141 133.627 109.781 133.508 109.207 133.363C108.434 133.168 107.896 133 107.596 132.859C107.299 132.715 107.072 132.518 106.916 132.268C106.764 132.014 106.688 131.734 106.688 131.43C106.688 131.152 106.75 130.896 106.875 130.662C107.004 130.424 107.178 130.227 107.396 130.07C107.561 129.949 107.783 129.848 108.064 129.766C108.35 129.68 108.654 129.637 108.979 129.637C109.467 129.637 109.895 129.707 110.262 129.848C110.633 129.988 110.906 130.18 111.082 130.422C111.258 130.66 111.379 130.98 111.445 131.383L110.414 131.523C110.367 131.203 110.23 130.953 110.004 130.773C109.781 130.594 109.465 130.504 109.055 130.504C108.57 130.504 108.225 130.584 108.018 130.744C107.811 130.904 107.707 131.092 107.707 131.307C107.707 131.443 107.75 131.566 107.836 131.676C107.922 131.789 108.057 131.883 108.24 131.957C108.346 131.996 108.656 132.086 109.172 132.227C109.918 132.426 110.438 132.59 110.73 132.719C111.027 132.844 111.26 133.027 111.428 133.27C111.596 133.512 111.68 133.812 111.68 134.172C111.68 134.523 111.576 134.855 111.369 135.168C111.166 135.477 110.871 135.717 110.484 135.889C110.098 136.057 109.66 136.141 109.172 136.141C108.363 136.141 107.746 135.973 107.32 135.637C106.898 135.301 106.629 134.803 106.512 134.143ZM118.289 138.525C117.707 137.791 117.215 136.932 116.812 135.947C116.41 134.963 116.209 133.943 116.209 132.889C116.209 131.959 116.359 131.068 116.66 130.217C117.012 129.229 117.555 128.244 118.289 127.264H119.045C118.572 128.076 118.26 128.656 118.107 129.004C117.869 129.543 117.682 130.105 117.545 130.691C117.377 131.422 117.293 132.156 117.293 132.895C117.293 134.773 117.877 136.65 119.045 138.525H118.289ZM120.598 136V127.41H121.734V136H120.598ZM123.609 136V129.777H124.559V130.662C125.016 129.979 125.676 129.637 126.539 129.637C126.914 129.637 127.258 129.705 127.57 129.842C127.887 129.975 128.123 130.15 128.279 130.369C128.436 130.588 128.545 130.848 128.607 131.148C128.646 131.344 128.666 131.686 128.666 132.174V136H127.611V132.215C127.611 131.785 127.57 131.465 127.488 131.254C127.406 131.039 127.26 130.869 127.049 130.744C126.842 130.615 126.598 130.551 126.316 130.551C125.867 130.551 125.479 130.693 125.15 130.979C124.826 131.264 124.664 131.805 124.664 132.602V136H123.609ZM134.35 133.721L135.387 133.855C135.273 134.57 134.982 135.131 134.514 135.537C134.049 135.939 133.477 136.141 132.797 136.141C131.945 136.141 131.26 135.863 130.74 135.309C130.225 134.75 129.967 133.951 129.967 132.912C129.967 132.24 130.078 131.652 130.301 131.148C130.523 130.645 130.861 130.268 131.314 130.018C131.771 129.764 132.268 129.637 132.803 129.637C133.479 129.637 134.031 129.809 134.461 130.152C134.891 130.492 135.166 130.977 135.287 131.605L134.262 131.764C134.164 131.346 133.99 131.031 133.74 130.82C133.494 130.609 133.195 130.504 132.844 130.504C132.312 130.504 131.881 130.695 131.549 131.078C131.217 131.457 131.051 132.059 131.051 132.883C131.051 133.719 131.211 134.326 131.531 134.705C131.852 135.084 132.27 135.273 132.785 135.273C133.199 135.273 133.545 135.146 133.822 134.893C134.1 134.639 134.275 134.248 134.35 133.721ZM136.266 136V127.41H137.32V136H136.266ZM143.039 136V135.086C142.555 135.789 141.896 136.141 141.064 136.141C140.697 136.141 140.354 136.07 140.033 135.93C139.717 135.789 139.48 135.613 139.324 135.402C139.172 135.188 139.064 134.926 139.002 134.617C138.959 134.41 138.938 134.082 138.938 133.633V129.777H139.992V133.229C139.992 133.779 140.014 134.15 140.057 134.342C140.123 134.619 140.264 134.838 140.479 134.998C140.693 135.154 140.959 135.232 141.275 135.232C141.592 135.232 141.889 135.152 142.166 134.992C142.443 134.828 142.639 134.607 142.752 134.33C142.869 134.049 142.928 133.643 142.928 133.111V129.777H143.982V136H143.039ZM149.678 136V135.215C149.283 135.832 148.703 136.141 147.938 136.141C147.441 136.141 146.984 136.004 146.566 135.73C146.152 135.457 145.83 135.076 145.6 134.588C145.373 134.096 145.26 133.531 145.26 132.895C145.26 132.273 145.363 131.711 145.57 131.207C145.777 130.699 146.088 130.311 146.502 130.041C146.916 129.771 147.379 129.637 147.891 129.637C148.266 129.637 148.6 129.717 148.893 129.877C149.186 130.033 149.424 130.238 149.607 130.492V127.41H150.656V136H149.678ZM146.344 132.895C146.344 133.691 146.512 134.287 146.848 134.682C147.184 135.076 147.58 135.273 148.037 135.273C148.498 135.273 148.889 135.086 149.209 134.711C149.533 134.332 149.695 133.756 149.695 132.982C149.695 132.131 149.531 131.506 149.203 131.107C148.875 130.709 148.471 130.51 147.99 130.51C147.521 130.51 147.129 130.701 146.812 131.084C146.5 131.467 146.344 132.07 146.344 132.895ZM156.58 133.996L157.67 134.131C157.498 134.768 157.18 135.262 156.715 135.613C156.25 135.965 155.656 136.141 154.934 136.141C154.023 136.141 153.301 135.861 152.766 135.303C152.234 134.74 151.969 133.953 151.969 132.941C151.969 131.895 152.238 131.082 152.777 130.504C153.316 129.926 154.016 129.637 154.875 129.637C155.707 129.637 156.387 129.92 156.914 130.486C157.441 131.053 157.705 131.85 157.705 132.877C157.705 132.939 157.703 133.033 157.699 133.158H153.059C153.098 133.842 153.291 134.365 153.639 134.729C153.986 135.092 154.42 135.273 154.939 135.273C155.326 135.273 155.656 135.172 155.93 134.969C156.203 134.766 156.42 134.441 156.58 133.996ZM153.117 132.291H156.592C156.545 131.768 156.412 131.375 156.193 131.113C155.857 130.707 155.422 130.504 154.887 130.504C154.402 130.504 153.994 130.666 153.662 130.99C153.334 131.314 153.152 131.748 153.117 132.291ZM158.578 134.143L159.621 133.979C159.68 134.396 159.842 134.717 160.107 134.939C160.377 135.162 160.752 135.273 161.232 135.273C161.717 135.273 162.076 135.176 162.311 134.98C162.545 134.781 162.662 134.549 162.662 134.283C162.662 134.045 162.559 133.857 162.352 133.721C162.207 133.627 161.848 133.508 161.273 133.363C160.5 133.168 159.963 133 159.662 132.859C159.365 132.715 159.139 132.518 158.982 132.268C158.83 132.014 158.754 131.734 158.754 131.43C158.754 131.152 158.816 130.896 158.941 130.662C159.07 130.424 159.244 130.227 159.463 130.07C159.627 129.949 159.85 129.848 160.131 129.766C160.416 129.68 160.721 129.637 161.045 129.637C161.533 129.637 161.961 129.707 162.328 129.848C162.699 129.988 162.973 130.18 163.148 130.422C163.324 130.66 163.445 130.98 163.512 131.383L162.48 131.523C162.434 131.203 162.297 130.953 162.07 130.773C161.848 130.594 161.531 130.504 161.121 130.504C160.637 130.504 160.291 130.584 160.084 130.744C159.877 130.904 159.773 131.092 159.773 131.307C159.773 131.443 159.816 131.566 159.902 131.676C159.988 131.789 160.123 131.883 160.307 131.957C160.412 131.996 160.723 132.086 161.238 132.227C161.984 132.426 162.504 132.59 162.797 132.719C163.094 132.844 163.326 133.027 163.494 133.27C163.662 133.512 163.746 133.812 163.746 134.172C163.746 134.523 163.643 134.855 163.436 135.168C163.232 135.477 162.938 135.717 162.551 135.889C162.164 136.057 161.727 136.141 161.238 136.141C160.43 136.141 159.812 135.973 159.387 135.637C158.965 135.301 158.695 134.803 158.578 134.143ZM168.492 136V127.41H172.301C173.066 127.41 173.648 127.488 174.047 127.645C174.445 127.797 174.764 128.068 175.002 128.459C175.24 128.85 175.359 129.281 175.359 129.754C175.359 130.363 175.162 130.877 174.768 131.295C174.373 131.713 173.764 131.979 172.939 132.092C173.24 132.236 173.469 132.379 173.625 132.52C173.957 132.824 174.271 133.205 174.568 133.662L176.062 136H174.633L173.496 134.213C173.164 133.697 172.891 133.303 172.676 133.029C172.461 132.756 172.268 132.564 172.096 132.455C171.928 132.346 171.756 132.27 171.58 132.227C171.451 132.199 171.24 132.186 170.947 132.186H169.629V136H168.492ZM169.629 131.201H172.072C172.592 131.201 172.998 131.148 173.291 131.043C173.584 130.934 173.807 130.762 173.959 130.527C174.111 130.289 174.188 130.031 174.188 129.754C174.188 129.348 174.039 129.014 173.742 128.752C173.449 128.49 172.984 128.359 172.348 128.359H169.629V131.201ZM181.072 135.232C180.682 135.564 180.305 135.799 179.941 135.936C179.582 136.072 179.195 136.141 178.781 136.141C178.098 136.141 177.572 135.975 177.205 135.643C176.838 135.307 176.654 134.879 176.654 134.359C176.654 134.055 176.723 133.777 176.859 133.527C177 133.273 177.182 133.07 177.404 132.918C177.631 132.766 177.885 132.65 178.166 132.572C178.373 132.518 178.686 132.465 179.104 132.414C179.955 132.312 180.582 132.191 180.984 132.051C180.988 131.906 180.99 131.814 180.99 131.775C180.99 131.346 180.891 131.043 180.691 130.867C180.422 130.629 180.021 130.51 179.49 130.51C178.994 130.51 178.627 130.598 178.389 130.773C178.154 130.945 177.98 131.252 177.867 131.693L176.836 131.553C176.93 131.111 177.084 130.756 177.299 130.486C177.514 130.213 177.824 130.004 178.23 129.859C178.637 129.711 179.107 129.637 179.643 129.637C180.174 129.637 180.605 129.699 180.938 129.824C181.27 129.949 181.514 130.107 181.67 130.299C181.826 130.486 181.936 130.725 181.998 131.014C182.033 131.193 182.051 131.518 182.051 131.986V133.393C182.051 134.373 182.072 134.994 182.115 135.256C182.162 135.514 182.252 135.762 182.385 136H181.283C181.174 135.781 181.104 135.525 181.072 135.232ZM180.984 132.877C180.602 133.033 180.027 133.166 179.262 133.275C178.828 133.338 178.521 133.408 178.342 133.486C178.162 133.564 178.023 133.68 177.926 133.832C177.828 133.98 177.779 134.146 177.779 134.33C177.779 134.611 177.885 134.846 178.096 135.033C178.311 135.221 178.623 135.314 179.033 135.314C179.439 135.314 179.801 135.227 180.117 135.051C180.434 134.871 180.666 134.627 180.814 134.318C180.928 134.08 180.984 133.729 180.984 133.264V132.877ZM183.691 136V129.777H184.641V130.662C185.098 129.979 185.758 129.637 186.621 129.637C186.996 129.637 187.34 129.705 187.652 129.842C187.969 129.975 188.205 130.15 188.361 130.369C188.518 130.588 188.627 130.848 188.689 131.148C188.729 131.344 188.748 131.686 188.748 132.174V136H187.693V132.215C187.693 131.785 187.652 131.465 187.57 131.254C187.488 131.039 187.342 130.869 187.131 130.744C186.924 130.615 186.68 130.551 186.398 130.551C185.949 130.551 185.561 130.693 185.232 130.979C184.908 131.264 184.746 131.805 184.746 132.602V136H183.691ZM194.408 136V135.215C194.014 135.832 193.434 136.141 192.668 136.141C192.172 136.141 191.715 136.004 191.297 135.73C190.883 135.457 190.561 135.076 190.33 134.588C190.104 134.096 189.99 133.531 189.99 132.895C189.99 132.273 190.094 131.711 190.301 131.207C190.508 130.699 190.818 130.311 191.232 130.041C191.646 129.771 192.109 129.637 192.621 129.637C192.996 129.637 193.33 129.717 193.623 129.877C193.916 130.033 194.154 130.238 194.338 130.492V127.41H195.387V136H194.408ZM191.074 132.895C191.074 133.691 191.242 134.287 191.578 134.682C191.914 135.076 192.311 135.273 192.768 135.273C193.229 135.273 193.619 135.086 193.939 134.711C194.264 134.332 194.426 133.756 194.426 132.982C194.426 132.131 194.262 131.506 193.934 131.107C193.605 130.709 193.201 130.51 192.721 130.51C192.252 130.51 191.859 130.701 191.543 131.084C191.23 131.467 191.074 132.07 191.074 132.895ZM196.658 132.889C196.658 131.736 196.979 130.883 197.619 130.328C198.154 129.867 198.807 129.637 199.576 129.637C200.432 129.637 201.131 129.918 201.674 130.48C202.217 131.039 202.488 131.812 202.488 132.801C202.488 133.602 202.367 134.232 202.125 134.693C201.887 135.15 201.537 135.506 201.076 135.76C200.619 136.014 200.119 136.141 199.576 136.141C198.705 136.141 198 135.861 197.461 135.303C196.926 134.744 196.658 133.939 196.658 132.889ZM197.742 132.889C197.742 133.686 197.916 134.283 198.264 134.682C198.611 135.076 199.049 135.273 199.576 135.273C200.1 135.273 200.535 135.074 200.883 134.676C201.23 134.277 201.404 133.67 201.404 132.854C201.404 132.084 201.229 131.502 200.877 131.107C200.529 130.709 200.096 130.51 199.576 130.51C199.049 130.51 198.611 130.707 198.264 131.102C197.916 131.496 197.742 132.092 197.742 132.889ZM203.73 136V129.777H204.674V130.65C204.869 130.346 205.129 130.102 205.453 129.918C205.777 129.73 206.146 129.637 206.561 129.637C207.021 129.637 207.398 129.732 207.691 129.924C207.988 130.115 208.197 130.383 208.318 130.727C208.811 130 209.451 129.637 210.24 129.637C210.857 129.637 211.332 129.809 211.664 130.152C211.996 130.492 212.162 131.018 212.162 131.729V136H211.113V132.08C211.113 131.658 211.078 131.355 211.008 131.172C210.941 130.984 210.818 130.834 210.639 130.721C210.459 130.607 210.248 130.551 210.006 130.551C209.568 130.551 209.205 130.697 208.916 130.99C208.627 131.279 208.482 131.744 208.482 132.385V136H207.428V131.957C207.428 131.488 207.342 131.137 207.17 130.902C206.998 130.668 206.717 130.551 206.326 130.551C206.029 130.551 205.754 130.629 205.5 130.785C205.25 130.941 205.068 131.17 204.955 131.471C204.842 131.771 204.785 132.205 204.785 132.771V136H203.73ZM217.395 136V127.41H218.531V136H217.395ZM222.709 135.057L222.861 135.988C222.564 136.051 222.299 136.082 222.064 136.082C221.682 136.082 221.385 136.021 221.174 135.9C220.963 135.779 220.814 135.621 220.729 135.426C220.643 135.227 220.6 134.811 220.6 134.178V130.598H219.826V129.777H220.6V128.236L221.648 127.604V129.777H222.709V130.598H221.648V134.236C221.648 134.537 221.666 134.73 221.701 134.816C221.74 134.902 221.801 134.971 221.883 135.021C221.969 135.072 222.09 135.098 222.246 135.098C222.363 135.098 222.518 135.084 222.709 135.057ZM228.006 133.996L229.096 134.131C228.924 134.768 228.605 135.262 228.141 135.613C227.676 135.965 227.082 136.141 226.359 136.141C225.449 136.141 224.727 135.861 224.191 135.303C223.66 134.74 223.395 133.953 223.395 132.941C223.395 131.895 223.664 131.082 224.203 130.504C224.742 129.926 225.441 129.637 226.301 129.637C227.133 129.637 227.812 129.92 228.34 130.486C228.867 131.053 229.131 131.85 229.131 132.877C229.131 132.939 229.129 133.033 229.125 133.158H224.484C224.523 133.842 224.717 134.365 225.064 134.729C225.412 135.092 225.846 135.273 226.365 135.273C226.752 135.273 227.082 135.172 227.355 134.969C227.629 134.766 227.846 134.441 228.006 133.996ZM224.543 132.291H228.018C227.971 131.768 227.838 131.375 227.619 131.113C227.283 130.707 226.848 130.504 226.312 130.504C225.828 130.504 225.42 130.666 225.088 130.99C224.76 131.314 224.578 131.748 224.543 132.291ZM230.426 136V129.777H231.369V130.65C231.564 130.346 231.824 130.102 232.148 129.918C232.473 129.73 232.842 129.637 233.256 129.637C233.717 129.637 234.094 129.732 234.387 129.924C234.684 130.115 234.893 130.383 235.014 130.727C235.506 130 236.146 129.637 236.936 129.637C237.553 129.637 238.027 129.809 238.359 130.152C238.691 130.492 238.857 131.018 238.857 131.729V136H237.809V132.08C237.809 131.658 237.773 131.355 237.703 131.172C237.637 130.984 237.514 130.834 237.334 130.721C237.154 130.607 236.943 130.551 236.701 130.551C236.264 130.551 235.9 130.697 235.611 130.99C235.322 131.279 235.178 131.744 235.178 132.385V136H234.123V131.957C234.123 131.488 234.037 131.137 233.865 130.902C233.693 130.668 233.412 130.551 233.021 130.551C232.725 130.551 232.449 130.629 232.195 130.785C231.945 130.941 231.764 131.17 231.65 131.471C231.537 131.771 231.48 132.205 231.48 132.771V136H230.426ZM240 134.143L241.043 133.979C241.102 134.396 241.264 134.717 241.529 134.939C241.799 135.162 242.174 135.273 242.654 135.273C243.139 135.273 243.498 135.176 243.732 134.98C243.967 134.781 244.084 134.549 244.084 134.283C244.084 134.045 243.98 133.857 243.773 133.721C243.629 133.627 243.27 133.508 242.695 133.363C241.922 133.168 241.385 133 241.084 132.859C240.787 132.715 240.561 132.518 240.404 132.268C240.252 132.014 240.176 131.734 240.176 131.43C240.176 131.152 240.238 130.896 240.363 130.662C240.492 130.424 240.666 130.227 240.885 130.07C241.049 129.949 241.271 129.848 241.553 129.766C241.838 129.68 242.143 129.637 242.467 129.637C242.955 129.637 243.383 129.707 243.75 129.848C244.121 129.988 244.395 130.18 244.57 130.422C244.746 130.66 244.867 130.98 244.934 131.383L243.902 131.523C243.855 131.203 243.719 130.953 243.492 130.773C243.27 130.594 242.953 130.504 242.543 130.504C242.059 130.504 241.713 130.584 241.506 130.744C241.299 130.904 241.195 131.092 241.195 131.307C241.195 131.443 241.238 131.566 241.324 131.676C241.41 131.789 241.545 131.883 241.729 131.957C241.834 131.996 242.145 132.086 242.66 132.227C243.406 132.426 243.926 132.59 244.219 132.719C244.516 132.844 244.748 133.027 244.916 133.27C245.084 133.512 245.168 133.812 245.168 134.172C245.168 134.523 245.064 134.855 244.857 135.168C244.654 135.477 244.359 135.717 243.973 135.889C243.586 136.057 243.148 136.141 242.66 136.141C241.852 136.141 241.234 135.973 240.809 135.637C240.387 135.301 240.117 134.803 240 134.143ZM247.113 138.525H246.357C247.525 136.65 248.109 134.773 248.109 132.895C248.109 132.16 248.025 131.432 247.857 130.709C247.725 130.123 247.539 129.561 247.301 129.021C247.148 128.67 246.834 128.084 246.357 127.264H247.113C247.848 128.244 248.391 129.229 248.742 130.217C249.043 131.068 249.193 131.959 249.193 132.889C249.193 133.943 248.99 134.963 248.584 135.947C248.182 136.932 247.691 137.791 247.113 138.525Z" fill="black"/>
</svg>
