<svg version="1.2" xmlns="http://www.w3.org/2000/svg" viewBox="0 0 326 348" width="326" height="348">
	<title>apex-mobile-footer-logo-svg</title>
	<defs>
		<clipPath clipPathUnits="userSpaceOnUse" id="cp1">
			<path d="m-2.29 24.46h303.58v299.08h-303.58z"/>
		</clipPath>
	</defs>
	<style>
		.s0 { fill: #ffffff } 
		.s1 { fill: #000000 } 
	</style>
	<g id="Clip-Path" clip-path="url(#cp1)">
		<g id="Layer">
			<path id="Layer" fill-rule="evenodd" class="s0" d="m127.1 25.9c2.3 0.9 4.3 2.2 6 3.9 1.7 1.8 3 3.8 4 6 0.9 2.2 1.4 4.6 1.4 7v67.8c0 2.4-0.5 4.8-1.4 7-1 2.3-2.3 4.3-4 6-1.7 1.7-3.8 3-6 4-2.2 0.9-4.6 1.4-7 1.4h-15.3v42.8h-22.3v-126h-4.6l4.6-21.3h37.6c2.4 0 4.8 0.4 7 1.4zm-22.2 81.7h11.2v-61.7h-11.2zm58.1-83.2h50.8v21.4h-28.4v41.6h20v21.4h-20v41.5h28.4v21.4h-50.8v-125.9h-4.6zm120.9 78.8l16.6 68.5h-22.7l-11.2-46.4-10.3 46.4h-23.6l16.6-68.5v-10.3l-11.4-47.1h-4.6l4.6-21.4h17.5l11.2 46.4 10.3-46.4h23.6l-16.6 68.5zm-222.2 68.5h-20l-1.9-21.4h-18l-1.9 21.4h-19.9l2.2-21.4h-4.5l4.5-20.9v-0.4h2.3l10.9-104.6h30.8zm-23.6-42.8l-7.2-83.1-7.2 83.1zm14.1 77.7v4.7h-51.1l-1-4.7zm248.3 0l-1 4.7h-51.1v-4.7zm-207-16.5h12.2v4.8h-7.5v11.7h5.6v4.7h-5.6v10.9h7.5v4.8h-12.2zm-17.3 32h7.5v4.8h-12.2v-36.8h4.7zm54.1-29v5.3l-4.8 1v-4.7h-3.9v27.4h3.9v-10.9h-2.4l1-4.8h6.2v17.3c0 0.8-0.4 1.6-1 2.2-0.6 0.6-1.4 0.9-2.2 0.9h-7.1c-0.8 0-1.6-0.3-2.2-0.9-0.6-0.6-0.9-1.4-1-2.2v-30.6c0-0.8 0.4-1.6 1-2.2 0.6-0.6 1.3-0.9 2.2-0.9h7.1c0.9 0 1.7 0.3 2.2 0.9 0.6 0.6 1 1.4 1 2.2zm11.1-3.1h12.2v4.7h-7.5v11.7h5.6v4.8h-5.6v10.9h7.5v4.7h-12.2zm33.7 0h4.7v36.8h-4l-6.3-20.3v20.3h-4.7v-36.8h4.2l6.1 21.2zm28.3 0.9c0.6 0.6 1 1.4 1 2.2v30.6c0 0.8-0.4 1.6-1 2.2-0.6 0.6-1.3 0.9-2.2 0.9h-10.3v-36.8h10.3c0.9 0 1.7 0.3 2.2 0.9zm-7.7 31.2h3.9v-27.4h-3.9zm33.3-12.5v14.1c0 0.9-0.4 1.7-1 2.2-0.6 0.6-1.4 0.9-2.2 0.9h-7.1c-0.8 0-1.6-0.3-2.2-0.9-0.6-0.6-0.9-1.3-1-2.2v-5.6l4.7-1v5h4v-10.9h-5.5c-0.9 0-1.6-0.3-2.2-0.9-0.6-0.6-1-1.4-1-2.2v-14.9q0-0.7 0.2-1.3 0.3-0.6 0.7-1 0.5-0.5 1-0.7 0.6-0.2 1.3-0.2h7.1q0.6 0 1.2 0.2 0.6 0.3 1.1 0.7 0.4 0.4 0.6 1 0.3 0.6 0.3 1.2v5.4l-4.8 1v-4.8h-4v11.8h5.6c0.9 0 1.7 0.3 2.2 0.9 0.6 0.6 1 1.4 1 2.2zm6.6-19h-1.1v-0.6h2.9v0.6h-1.1v4.1h-0.7zm4.6 4.2v-2.6l-0.5 1.6h-0.5l-0.5-1.6v2.6h-0.6v-4.8h0.6l0.7 2.4 0.8-2.4h0.6v4.8zm56.1 66.2l-27.5 62.4h-239.7l-27.2-62.3 6.9-16.1h280.6z"/>
			<path id="Layer" class="s1" d="m81 269.3h9.5v30.1h-2.6-6v-16.3h-0.5l-9.9 16.3h-1.2-3-1.1l-10-16.3h-0.4v16.3h-8.6v-23h-2.6l1.5-7.1h1.1 6.3 3.2 1.1l10.8 18.3h0.4l10.8-18.3z"/>
			<path id="Layer" fill-rule="evenodd" class="s1" d="m97.1 273.8c0-2.7 2.2-4.9 4.9-4.9h24.2c2.7 0 4.8 2.2 4.8 4.9v21.1c0 2.7-2.1 4.9-4.8 4.9h-24.2c-2.7 0-4.9-2.2-4.9-4.9zm25.8 4q0-0.4-0.1-0.7-0.1-0.3-0.4-0.6-0.2-0.2-0.6-0.3-0.3-0.2-0.6-0.1h-14.3q-0.3-0.1-0.6 0.1-0.4 0.1-0.6 0.3-0.3 0.3-0.4 0.6-0.1 0.3-0.1 0.7v13.3q0 0.4 0.1 0.7 0.1 0.3 0.4 0.6 0.2 0.2 0.6 0.3 0.3 0.1 0.6 0.1h14.3q0.3 0 0.6-0.1 0.4-0.1 0.6-0.3 0.3-0.3 0.4-0.6 0.1-0.3 0.1-0.7z"/>
			<path id="Layer" fill-rule="evenodd" class="s1" d="m170.1 289.6v3c0 4.7-2.6 6.8-7.3 6.8h-25.2v-23h-2.6l1.5-7.1h24.5c4.8 0 7.3 2.6 7.3 7.3v2.7c0.1 0.9-0.1 1.8-0.6 2.6-0.5 0.8-1.3 1.4-2.1 1.7v0.4c0 0 4.5 0.9 4.5 5.6zm-24.4-8.6h12.8q0.3 0 0.7-0.1 0.3-0.1 0.6-0.3 0.2-0.3 0.3-0.6 0.1-0.4 0.1-0.7v-1.2q0-0.3-0.1-0.7-0.1-0.3-0.3-0.5-0.3-0.3-0.6-0.4-0.4-0.1-0.7-0.1h-12.8zm16.2 8.1c0-1-0.7-1.4-1.7-1.4h-14.5v4.6h14.5c1 0 1.7-0.4 1.7-1.4z"/>
			<path id="Layer" class="s1" d="m175.5 269.3h8.2v30.1h-8.2z"/>
			<path id="Layer" class="s1" d="m198.6 292.3h21v7.1h-29.1v-30.1h8.1z"/>
			<path id="Layer" class="s1" d="m254.5 299.4h-30.7v-23h-2.6l1.5-7.1h1.1 30.3v7.1h-22.2v4.1h18.3v7.1h-18.3v4.7h22.6z"/>
		</g>
	</g>
</svg>