<svg id="Layer_1" data-name="Layer 1" xmlns="http://www.w3.org/2000/svg" width="141.7" height="45" viewBox="0 0 141.7 45">
  <defs>
    <style>
      .cls-1 {
        fill: #fff;
      }

      .cls-2 {
        fill: #929497;
      }

      .cls-3 {
        fill: #5fc323;
      }

      .cls-4 {
        fill: #004676;
      }

      .cls-5 {
        fill: none;
        stroke: #231f20;
        stroke-miterlimit: 10;
        stroke-width: 0.5px;
      }

      .cls-6 {
        fill: #231f20;
      }
    </style>
  </defs>
  <title>Seal_VerifiedPrivacy_en-new_Medium_CenterJustified</title>
  <g>
    <path class="cls-1" d="M26.21,44.83A16.41,16.41,0,0,1,10.15,32.1l0-.13-1.4-.07a9,9,0,0,1-8.55-9V.17H136.05a5.48,5.48,0,0,1,5.47,5.47V39.35a5.49,5.49,0,0,1-5.47,5.48Z" transform="translate(0)"/>
    <path class="cls-2" d="M136.05.35a5.3,5.3,0,0,1,5.3,5.29V39.35a5.31,5.31,0,0,1-5.3,5.3H26.15A16.22,16.22,0,0,1,10.32,32.06l-.06-.25-.26,0-1.27-.06A8.82,8.82,0,0,1,.35,22.92V.35h135.7m0-.35H0V22.92a9.17,9.17,0,0,0,8.71,9.16l1.27.06A16.67,16.67,0,0,0,26.18,45H136.05a5.65,5.65,0,0,0,5.65-5.65V5.64A5.65,5.65,0,0,0,136.05,0Z" transform="translate(0)"/>
  </g>
  <g>
    <path class="cls-3" d="M4.72,4.72V22.89a5.38,5.38,0,0,0,5.12,5.37A16.15,16.15,0,0,1,23.15,12.07,15.73,15.73,0,0,1,26,11.82,16.1,16.1,0,0,1,41.84,25.15a15.7,15.7,0,0,1,.24,3.11,5.37,5.37,0,0,0,5.1-5.37V4.72Z" transform="translate(0)"/>
    <path d="M20.78,28a5.2,5.2,0,1,1,10.4,0ZM13.6,28A12.35,12.35,0,0,0,25.92,40.28a12.21,12.21,0,0,0,8.74-3.64l-2.51-2.5A8.78,8.78,0,1,1,34.7,28h3.54A12.32,12.32,0,0,0,13.6,28" transform="translate(0)"/>
  </g>
  <g>
    <path class="cls-4" d="M51.38,34.66h1.9a3.84,3.84,0,0,1,.93.1,1.93,1.93,0,0,1,.73.3,1.49,1.49,0,0,1,.46.56,2.36,2.36,0,0,1,0,1.71,1.52,1.52,0,0,1-.47.59,2,2,0,0,1-.72.36,3.38,3.38,0,0,1-.93.12H52.17v2.45h-.79Zm1.81,3.09a2,2,0,0,0,1.2-.3,1.17,1.17,0,0,0,.39-1,1,1,0,0,0-.4-.93,2.21,2.21,0,0,0-1.19-.26h-1v2.46Z" transform="translate(0)"/>
    <path class="cls-4" d="M56,38.57a2.75,2.75,0,0,1,.17-1,2.33,2.33,0,0,1,.47-.76,2.08,2.08,0,0,1,.67-.47,2.21,2.21,0,0,1,.81-.16,2.15,2.15,0,0,1,.8.16,2.13,2.13,0,0,1,.68.47,2.51,2.51,0,0,1,.47.76,3,3,0,0,1,.17,1,2.93,2.93,0,0,1-.17,1,2.34,2.34,0,0,1-.47.75,2,2,0,0,1-1.48.63,2,2,0,0,1-.81-.16,1.94,1.94,0,0,1-.67-.47,2.18,2.18,0,0,1-.47-.75A2.71,2.71,0,0,1,56,38.57Zm.8,0a2.6,2.6,0,0,0,.09.71,1.49,1.49,0,0,0,.27.55,1.19,1.19,0,0,0,.42.36,1.08,1.08,0,0,0,.54.13,1.13,1.13,0,0,0,.54-.13,1.19,1.19,0,0,0,.42-.36,1.65,1.65,0,0,0,.26-.55,2.26,2.26,0,0,0,.1-.71,2.39,2.39,0,0,0-.1-.73,1.92,1.92,0,0,0-.26-.56,1.3,1.3,0,0,0-.42-.36,1.13,1.13,0,0,0-.54-.13,1.08,1.08,0,0,0-.54.13,1.3,1.3,0,0,0-.42.36,1.71,1.71,0,0,0-.27.56A2.75,2.75,0,0,0,56.79,38.57Z" transform="translate(0)"/>
    <path class="cls-4" d="M60.66,36.26h.8l.68,2.65c0,.22.09.44.14.65s.08.41.13.63h0l.15-.64c0-.21.1-.42.16-.64l.71-2.65h.75l.72,2.65c0,.22.11.44.16.65s.11.41.16.63h0q.08-.33.15-.63c0-.21.09-.43.14-.65l.67-2.65H67l-1.22,4.59h-1l-.66-2.46L64,37.74c0-.22-.1-.44-.16-.67h0l-.15.67c0,.22-.1.44-.17.66l-.64,2.45h-.9Z" transform="translate(0)"/>
    <path class="cls-4" d="M67.42,38.57a2.73,2.73,0,0,1,.17-1,2.49,2.49,0,0,1,.46-.76,1.9,1.9,0,0,1,.66-.47,1.83,1.83,0,0,1,.76-.17,1.94,1.94,0,0,1,.78.15,1.46,1.46,0,0,1,.57.44,1.77,1.77,0,0,1,.36.68,3,3,0,0,1,.12.88,2.63,2.63,0,0,1,0,.43H68.18a1.75,1.75,0,0,0,.46,1.17,1.4,1.4,0,0,0,1.07.44,1.74,1.74,0,0,0,.61-.1,2.89,2.89,0,0,0,.53-.26l.27.51a3.8,3.8,0,0,1-.67.33,2.38,2.38,0,0,1-.84.14,2.27,2.27,0,0,1-.86-.16,2,2,0,0,1-.7-.48,2,2,0,0,1-.46-.75A2.62,2.62,0,0,1,67.42,38.57Zm3.2-.35a1.69,1.69,0,0,0-.3-1.08,1,1,0,0,0-.83-.38,1.28,1.28,0,0,0-.47.1,1.36,1.36,0,0,0-.4.29,1.29,1.29,0,0,0-.29.45,1.88,1.88,0,0,0-.16.62Z" transform="translate(0)"/>
    <path class="cls-4" d="M72.24,36.26h.64l.07.83h0a2.27,2.27,0,0,1,.57-.68,1.19,1.19,0,0,1,.73-.26,1.1,1.1,0,0,1,.49.1l-.15.67-.21-.05-.23,0a1.06,1.06,0,0,0-.61.23,1.87,1.87,0,0,0-.55.83v2.94h-.78Z" transform="translate(0)"/>
    <path class="cls-4" d="M74.89,38.57a2.73,2.73,0,0,1,.18-1,2.31,2.31,0,0,1,.46-.76,1.9,1.9,0,0,1,.66-.47,1.83,1.83,0,0,1,.76-.17,1.94,1.94,0,0,1,.78.15,1.46,1.46,0,0,1,.57.44,1.91,1.91,0,0,1,.36.68,3,3,0,0,1,.12.88,2.63,2.63,0,0,1,0,.43H75.66a1.8,1.8,0,0,0,.45,1.17,1.42,1.42,0,0,0,1.08.44,1.68,1.68,0,0,0,.6-.1,2.69,2.69,0,0,0,.54-.26l.27.51a3.8,3.8,0,0,1-.67.33,2.47,2.47,0,0,1-.84.14,2.2,2.2,0,0,1-.86-.16,2,2,0,0,1-.7-.48,2.18,2.18,0,0,1-.47-.75A2.83,2.83,0,0,1,74.89,38.57Zm3.21-.35a1.69,1.69,0,0,0-.3-1.08,1,1,0,0,0-.83-.38,1.18,1.18,0,0,0-.87.39,1.48,1.48,0,0,0-.3.45,1.88,1.88,0,0,0-.15.62Z" transform="translate(0)"/>
    <path class="cls-4" d="M79.39,38.57a2.89,2.89,0,0,1,.17-1A2.43,2.43,0,0,1,80,36.8a2,2,0,0,1,.64-.48,1.75,1.75,0,0,1,.75-.17,1.63,1.63,0,0,1,.69.14,3.74,3.74,0,0,1,.59.39l0-.78V34.13h.78v6.72h-.64l-.07-.54h0a2.85,2.85,0,0,1-.62.46,1.56,1.56,0,0,1-.76.19,1.74,1.74,0,0,1-1.39-.62A2.74,2.74,0,0,1,79.39,38.57Zm.8,0a2.2,2.2,0,0,0,.33,1.29,1.08,1.08,0,0,0,.94.46,1.17,1.17,0,0,0,.6-.16,2.15,2.15,0,0,0,.57-.47v-2.4a2.11,2.11,0,0,0-.57-.37,1.46,1.46,0,0,0-.55-.11,1,1,0,0,0-.51.13,1.19,1.19,0,0,0-.42.36,1.78,1.78,0,0,0-.28.55A2.27,2.27,0,0,0,80.19,38.56Z" transform="translate(0)"/>
    <path class="cls-4" d="M86.48,34.13h.78V36l0,.83a3.25,3.25,0,0,1,.68-.46,1.66,1.66,0,0,1,.75-.18,1.73,1.73,0,0,1,.78.17,1.44,1.44,0,0,1,.57.47,2.06,2.06,0,0,1,.35.73,3.6,3.6,0,0,1,.12,1,3.13,3.13,0,0,1-.16,1.05,2.43,2.43,0,0,1-.43.78,2,2,0,0,1-.64.49,1.74,1.74,0,0,1-.75.16,1.62,1.62,0,0,1-.66-.15,2.15,2.15,0,0,1-.65-.41h0l-.06.45h-.63Zm.78,5.7a2,2,0,0,0,.6.37,1.57,1.57,0,0,0,.52.11,1,1,0,0,0,.52-.13,1.19,1.19,0,0,0,.42-.36,1.89,1.89,0,0,0,.27-.57,2.54,2.54,0,0,0,.1-.76,3,3,0,0,0-.07-.69,1.4,1.4,0,0,0-.21-.53,1.07,1.07,0,0,0-.38-.35,1.15,1.15,0,0,0-.55-.12,1.9,1.9,0,0,0-1.22.62Z" transform="translate(0)"/>
    <path class="cls-4" d="M91.35,42.15a.57.57,0,0,0,.18,0,.83.83,0,0,0,.64-.28,2.07,2.07,0,0,0,.4-.7l.1-.34-1.84-4.6h.8l.94,2.54c.06.2.14.41.22.64s.15.44.22.65h0c.06-.2.13-.42.19-.65s.13-.44.19-.64l.82-2.54H95l-1.73,5a5.35,5.35,0,0,1-.27.64,2.06,2.06,0,0,1-.36.5,1.94,1.94,0,0,1-.47.34,1.48,1.48,0,0,1-.61.12,1.39,1.39,0,0,1-.3,0,.61.61,0,0,1-.24-.07l.15-.61Z" transform="translate(0)"/>
  </g>
  <g>
    <path d="M70.57,6.84v8.49H68.23V6.84H65V4.68h8.83V6.84Z" transform="translate(0)"/>
    <path d="M81.46,15.33l-2.28-3.41H77.34v3.41H75V4.68h4.87c2.52,0,4,1.32,4,3.51v0a3.31,3.31,0,0,1-2.28,3.3l2.61,3.81Zm.05-7c0-1-.7-1.52-1.84-1.52H77.34V9.85h2.37c1.14,0,1.8-.61,1.8-1.51Z" transform="translate(0)"/>
    <path d="M90.13,15.5c-2.86,0-4.6-1.6-4.6-4.74V4.68h2.34v6c0,1.74.87,2.63,2.3,2.63s2.29-.86,2.29-2.55V4.68h2.35v6C94.81,13.91,93,15.5,90.13,15.5Z" transform="translate(0)"/>
    <path d="M100.68,15.48a6.79,6.79,0,0,1-4.52-1.7l1.39-1.66a4.86,4.86,0,0,0,3.17,1.29c1,0,1.54-.38,1.54-1v0c0-.6-.36-.9-2.14-1.36-2.15-.54-3.53-1.14-3.53-3.25v0c0-1.93,1.55-3.21,3.72-3.21a6.15,6.15,0,0,1,4,1.36l-1.21,1.76a5.05,5.05,0,0,0-2.78-1c-.89,0-1.36.4-1.36.92v0c0,.7.45.93,2.29,1.4,2.16.57,3.38,1.34,3.38,3.2v0C104.59,14.3,103,15.48,100.68,15.48Z" transform="translate(0)"/>
    <path d="M110.54,6.84v8.49H108.2V6.84H105V4.68h8.83V6.84Z" transform="translate(0)"/>
    <path d="M121.09,12.06h-5.68a1.89,1.89,0,0,0,2,1.59,2.68,2.68,0,0,0,2-.83L120.71,14a4.31,4.31,0,0,1-7.6-2.69v0a4.06,4.06,0,0,1,4-4.24c2.73,0,4,2.11,4,4.43v0C121.12,11.71,121.1,11.84,121.09,12.06Zm-4-3.18a1.81,1.81,0,0,0-1.76,1.73h3.48A1.74,1.74,0,0,0,117.14,8.88Z" transform="translate(0)"/>
  </g>
  <path class="cls-4" d="M99.19,35.72h-2v-1h5.13v1h-2v5.06H99.19Zm4.21,5.06V37.43a1.61,1.61,0,0,1,.82-.18,3,3,0,0,1,.67.08l.27-.9a2.8,2.8,0,0,0-1-.14,2.86,2.86,0,0,0-1.84.63v3.86Zm5.46-4.34v3.37A2.34,2.34,0,0,1,108,40c-.88,0-1.07-.4-1.07-1.12V36.44h-1.06v2.73c0,1.07.61,1.75,2,1.75a4.66,4.66,0,0,0,2.11-.47v-4Zm2,3.8a2.47,2.47,0,0,0,1.71.64c1,0,1.68-.58,1.68-1.32,0-1.41-2.14-1.34-2.14-2,0-.27.27-.39.56-.39a1.69,1.69,0,0,1,1.08.38l.4-.82a2.09,2.09,0,0,0-1.47-.5c-.95,0-1.69.48-1.69,1.3,0,1.41,2.14,1.33,2.14,2,0,.26-.26.4-.57.4a1.84,1.84,0,0,1-1.2-.48Zm4.3-1.07a1.61,1.61,0,0,0,1.83,1.65,2.47,2.47,0,0,0,.34,0v-1a.91.91,0,0,1-.2,0,.79.79,0,0,1-.87-.83V37.38h1v-.93h-1V35.18h-1.07Zm9.8,1.61V37.43a1.61,1.61,0,0,1,.82-.18,3,3,0,0,1,.67.08l.27-.9a2.8,2.8,0,0,0-1-.14,2.86,2.86,0,0,0-1.84.63v3.86Zm4.23-4.43a2.25,2.25,0,1,0,0,4.5,2.42,2.42,0,0,0,1.76-.7l-.41-.76a2,2,0,0,1-1.26.55,1.31,1.31,0,0,1-1.34-1.35,1.28,1.28,0,0,1,1.31-1.33,1.66,1.66,0,0,1,1.11.46l.48-.73a2.18,2.18,0,0,0-1.65-.64m-7.57,2.86h-2L119,40.75h-1.11l2.1-6h1.12l2.1,6h-1.12Zm-.31-.88-.69-2-.69,2Z" transform="translate(0)"/>
  <line class="cls-5" x1="51.39" y1="31.76" x2="130.9" y2="31.76"/>
  <g>
    <path class="cls-6" d="M53,19.35h1.06l1.24,4.19c.14.46.27.89.37,1.29s.24.82.39,1.28h0c.15-.46.27-.89.38-1.28s.24-.83.37-1.29l1.24-4.19h1l-2.46,7.76H55.52Z" transform="translate(0)"/>
    <path class="cls-6" d="M59.5,24.25A3.35,3.35,0,0,1,59.72,23a2.86,2.86,0,0,1,.58-1,2.52,2.52,0,0,1,.82-.6,2.46,2.46,0,0,1,1-.2,2.38,2.38,0,0,1,1,.19,1.9,1.9,0,0,1,.72.54,2.54,2.54,0,0,1,.44.85,3.93,3.93,0,0,1,.16,1.12,3.71,3.71,0,0,1,0,.53H60.46A2.31,2.31,0,0,0,61,25.93a1.77,1.77,0,0,0,1.35.54,2.33,2.33,0,0,0,.76-.12,3,3,0,0,0,.67-.33l.34.64a4.7,4.7,0,0,1-.84.42,2.89,2.89,0,0,1-1.05.18,2.82,2.82,0,0,1-1.09-.21,2.63,2.63,0,0,1-1.46-1.53A3.64,3.64,0,0,1,59.5,24.25Zm4-.44a2.16,2.16,0,0,0-.37-1.36,1.27,1.27,0,0,0-1-.46,1.43,1.43,0,0,0-.58.12,1.49,1.49,0,0,0-.51.36,1.88,1.88,0,0,0-.37.56,3,3,0,0,0-.2.78Z" transform="translate(0)"/>
    <path class="cls-6" d="M65.8,21.36h.8l.09,1h0a2.69,2.69,0,0,1,.72-.86,1.43,1.43,0,0,1,.92-.32,1.7,1.7,0,0,1,.61.11l-.19.86a1.45,1.45,0,0,0-.26-.07,1.23,1.23,0,0,0-.29,0,1.3,1.3,0,0,0-.77.3,2.43,2.43,0,0,0-.69,1v3.69h-1Z" transform="translate(0)"/>
    <path class="cls-6" d="M70.4,20.17a.67.67,0,0,1-.47-.17.56.56,0,0,1-.2-.45.57.57,0,0,1,.2-.46.71.71,0,0,1,.47-.17.72.72,0,0,1,.48.17.6.6,0,0,1,.2.46.59.59,0,0,1-.2.45A.67.67,0,0,1,70.4,20.17Zm-.49,1.19h1v5.75h-1Z" transform="translate(0)"/>
    <path class="cls-6" d="M75.41,19.48a1.51,1.51,0,0,0-.65-.15c-.53,0-.8.38-.8,1.12v.91h1.22v.79H74v5H73v-5H72.2v-.73l.79-.06v-.91a2.2,2.2,0,0,1,.4-1.4,1.55,1.55,0,0,1,1.28-.51,2.76,2.76,0,0,1,.51.05,3,3,0,0,1,.45.14Z" transform="translate(0)"/>
    <path class="cls-6" d="M76.78,20.17A.67.67,0,0,1,76.3,20a.59.59,0,0,1-.2-.45.6.6,0,0,1,.2-.46.72.72,0,0,1,.48-.17.74.74,0,0,1,.48.17.59.59,0,0,1,.19.46.58.58,0,0,1-.19.45A.69.69,0,0,1,76.78,20.17Zm-.5,1.19h1v5.75h-1Z" transform="translate(0)"/>
    <path class="cls-6" d="M78.77,24.25A3.56,3.56,0,0,1,79,23a3,3,0,0,1,.58-1,2.66,2.66,0,0,1,.83-.6,2.43,2.43,0,0,1,1-.2,2.3,2.3,0,0,1,1,.19,1.86,1.86,0,0,1,.73.54,2.54,2.54,0,0,1,.44.85,3.94,3.94,0,0,1,.15,1.12,3.89,3.89,0,0,1,0,.53H79.72a2.31,2.31,0,0,0,.58,1.48,1.76,1.76,0,0,0,1.34.54,2.39,2.39,0,0,0,.77-.12,3.2,3.2,0,0,0,.67-.33l.34.64a4.7,4.7,0,0,1-.84.42,2.91,2.91,0,0,1-1.06.18,2.81,2.81,0,0,1-1.08-.21,2.78,2.78,0,0,1-.88-.59,2.87,2.87,0,0,1-.58-.94A3.64,3.64,0,0,1,78.77,24.25Zm4-.44a2.16,2.16,0,0,0-.37-1.36,1.27,1.27,0,0,0-1-.46,1.48,1.48,0,0,0-.59.12,1.55,1.55,0,0,0-.5.36,1.88,1.88,0,0,0-.37.56,2.62,2.62,0,0,0-.2.78Z" transform="translate(0)"/>
    <path class="cls-6" d="M84.65,24.25A3.54,3.54,0,0,1,84.86,23a3,3,0,0,1,.55-1,2.4,2.4,0,0,1,.79-.6,2.23,2.23,0,0,1,1-.21,2.06,2.06,0,0,1,.86.17,3.56,3.56,0,0,1,.75.49l-.05-1V18.68h1v8.43h-.81l-.08-.67h0A3.55,3.55,0,0,1,88,27a1.85,1.85,0,0,1-1,.25,2.1,2.1,0,0,1-1.73-.79A3.4,3.4,0,0,1,84.65,24.25Zm1,0a2.81,2.81,0,0,0,.41,1.62,1.35,1.35,0,0,0,1.17.58,1.54,1.54,0,0,0,.76-.2,2.68,2.68,0,0,0,.71-.59v-3a2.45,2.45,0,0,0-.7-.47,1.89,1.89,0,0,0-.69-.14,1.45,1.45,0,0,0-.65.16,1.74,1.74,0,0,0-.53.45,2.19,2.19,0,0,0-.35.7A2.84,2.84,0,0,0,85.66,24.24Z" transform="translate(0)"/>
    <path class="cls-6" d="M94.12,19.35H96.5a6.15,6.15,0,0,1,1.18.11,2.46,2.46,0,0,1,.9.39,1.72,1.72,0,0,1,.58.7,2.86,2.86,0,0,1,0,2.15,1.85,1.85,0,0,1-.58.74,2.67,2.67,0,0,1-.91.45A4.25,4.25,0,0,1,96.5,24H95.11v3.07h-1Zm2.27,3.88a2.41,2.41,0,0,0,1.51-.39,1.45,1.45,0,0,0,.49-1.21,1.3,1.3,0,0,0-.5-1.17,2.84,2.84,0,0,0-1.5-.32H95.11v3.09Z" transform="translate(0)"/>
    <path class="cls-6" d="M100.85,21.36h.81l.08,1h0a2.69,2.69,0,0,1,.72-.86,1.45,1.45,0,0,1,.92-.32,1.66,1.66,0,0,1,.61.11l-.19.86a1.45,1.45,0,0,0-.26-.07,1.12,1.12,0,0,0-.29,0,1.3,1.3,0,0,0-.77.3,2.43,2.43,0,0,0-.69,1v3.69h-1Z" transform="translate(0)"/>
    <path class="cls-6" d="M105.46,20.17A.67.67,0,0,1,105,20a.59.59,0,0,1-.2-.45.6.6,0,0,1,.2-.46.76.76,0,0,1,1,0,.59.59,0,0,1,.19.46.58.58,0,0,1-.19.45A.67.67,0,0,1,105.46,20.17Zm-.5,1.19h1v5.75h-1Z" transform="translate(0)"/>
    <path class="cls-6" d="M107,21.36h1l1.09,3.27.27.85c.09.28.18.56.26.84h0c.09-.28.17-.56.26-.84s.17-.57.26-.85l1.09-3.27h1l-2,5.75h-1.13Z" transform="translate(0)"/>
    <path class="cls-6" d="M112.88,25.62a1.59,1.59,0,0,1,.85-1.45,7,7,0,0,1,2.69-.7,2.47,2.47,0,0,0,0-.54,1.44,1.44,0,0,0-.19-.46,1,1,0,0,0-.36-.32,1.11,1.11,0,0,0-.58-.13,2.26,2.26,0,0,0-.94.19,4.79,4.79,0,0,0-.78.43l-.39-.68a6.83,6.83,0,0,1,1-.5,3.35,3.35,0,0,1,1.28-.24,1.75,1.75,0,0,1,1.53.64,2.83,2.83,0,0,1,.47,1.72v3.53h-.8l-.08-.68h0a4.39,4.39,0,0,1-.89.58,2.13,2.13,0,0,1-1,.25,1.8,1.8,0,0,1-1.22-.43A1.53,1.53,0,0,1,112.88,25.62Zm1-.07a.83.83,0,0,0,.29.71,1.2,1.2,0,0,0,.72.21,1.7,1.7,0,0,0,.79-.19,3.92,3.92,0,0,0,.78-.57v-1.6a9.37,9.37,0,0,0-1.22.22,3.43,3.43,0,0,0-.8.31,1.14,1.14,0,0,0-.43.41A1.06,1.06,0,0,0,113.84,25.55Z" transform="translate(0)"/>
    <path class="cls-6" d="M118.8,24.25A3.49,3.49,0,0,1,119,23a3,3,0,0,1,.6-.95,2.52,2.52,0,0,1,.89-.59,2.65,2.65,0,0,1,1-.2,2.25,2.25,0,0,1,1,.2,3.39,3.39,0,0,1,.71.48l-.49.63a2.73,2.73,0,0,0-.54-.37,1.38,1.38,0,0,0-.62-.14,1.73,1.73,0,0,0-.72.16,1.68,1.68,0,0,0-.57.46,2.12,2.12,0,0,0-.37.7,2.94,2.94,0,0,0-.14.91,2.84,2.84,0,0,0,.13.9,2.25,2.25,0,0,0,.36.69,1.62,1.62,0,0,0,.56.45,1.66,1.66,0,0,0,.73.16,1.72,1.72,0,0,0,.75-.17,2.77,2.77,0,0,0,.6-.41l.44.64a3.21,3.21,0,0,1-.88.54,2.42,2.42,0,0,1-1,.21,2.71,2.71,0,0,1-1.06-.21,2.3,2.3,0,0,1-.86-.58,2.8,2.8,0,0,1-.57-.95A3.6,3.6,0,0,1,118.8,24.25Z" transform="translate(0)"/>
    <path class="cls-6" d="M124.52,28.75l.23,0a1,1,0,0,0,.81-.35,2.4,2.4,0,0,0,.49-.88l.13-.42-2.31-5.77h1l1.17,3.18.28.8c.1.28.19.56.28.83h0c.09-.26.17-.54.25-.82s.16-.55.24-.81l1-3.18h1L127,27.59a7.21,7.21,0,0,1-.34.79,2.54,2.54,0,0,1-.45.63,2.23,2.23,0,0,1-.59.43,1.89,1.89,0,0,1-.77.15,2.05,2.05,0,0,1-.37,0,1.58,1.58,0,0,1-.31-.09l.19-.77Z" transform="translate(0)"/>
  </g>
</svg>
